<svg width="186" height="37" viewBox="0 0 186 37" fill="none" xmlns="http://www.w3.org/2000/svg">
<path d="M0 3.5C0 1.84315 1.34315 0.5 3 0.5H33C34.6569 0.5 36 1.84315 36 3.5V33.5C36 35.1569 34.6569 36.5 33 36.5H3C1.34315 36.5 0 35.1569 0 33.5V3.5Z" fill="#FF0000"/>
<path d="M3 0.5C1.34315 0.5 0 1.84315 0 3.5V14.1126C0.873148 13.5631 1.75119 13.0195 2.63087 12.4936C2.74142 12.4275 2.90492 12.3261 3.1109 12.1984C3.85889 11.7346 5.16699 10.9235 6.53317 10.1937C7.41577 9.72218 8.38045 9.25185 9.31367 8.89612C10.2043 8.55662 11.251 8.24787 12.2392 8.25495C13.0628 8.26086 13.7134 8.63687 14.125 8.98742C14.5497 9.34907 14.9069 9.83677 15.1112 10.3949C15.2497 10.7732 15.2633 11.138 15.2677 11.2809C15.274 11.4832 15.266 11.6912 15.2538 11.8787C15.2293 12.2576 15.1788 12.6855 15.1243 13.0787C15.0182 13.8452 14.8714 14.6601 14.7991 14.9579C14.7336 15.2276 14.66 15.4977 14.5781 15.767C17.6305 14.5621 20.7906 13.4715 24.017 12.6998C24.0735 12.6863 24.1496 12.6664 24.2418 12.6423C24.7193 12.5174 25.6276 12.28 26.4709 12.2343C27.4884 12.1791 29.2488 12.3567 30.2097 14.0594C30.6594 14.8562 30.8609 15.8046 30.9319 16.6097C31.0041 17.4287 30.9621 18.3395 30.7434 19.1322C30.2894 20.7774 29.2443 22.0462 28.2569 22.9974C27.534 23.6939 26.696 24.3478 26.0322 24.8657C25.8152 25.0351 25.6168 25.19 25.4471 25.327C24.4933 26.0972 23.5861 26.7802 22.7096 27.4399C21.9198 28.0344 21.1549 28.6101 20.4037 29.2139C21.0799 29.1782 21.7496 29.1245 22.3073 29.0729C24.3877 28.8805 26.4688 28.6111 28.5873 28.3317L29.015 28.2753C30.9846 28.0152 32.9888 27.7506 35.0013 27.5459C35.3339 27.512 35.6668 27.4798 36 27.449V3.5C36 1.84315 34.6569 0.5 33 0.5H3Z" fill="white"/>
<path d="M36 31.4666C35.8021 31.4856 35.6041 31.5052 35.4061 31.5253C33.4556 31.7237 31.508 31.9809 29.5257 32.2426L29.1102 32.2974C26.9959 32.5762 24.8433 32.8554 22.6758 33.0559C21.4048 33.1735 19.0636 33.3557 17.4344 33.1843C16.9172 33.13 16.3731 32.9977 15.8469 32.7572C15.1245 32.4271 14.3891 31.7127 14.3479 30.6024C14.317 29.7703 14.717 29.1405 14.9034 28.8739C15.2836 28.3303 15.8771 27.824 15.957 27.7558L15.9658 27.7482C17.3866 26.4454 19.0213 25.2099 20.5549 24.0508C21.3956 23.4155 22.2059 22.803 22.9339 22.2151C23.2037 21.9972 23.4661 21.7924 23.7223 21.5924C24.3399 21.1104 24.9213 20.6567 25.4817 20.1167C26.2467 19.3798 26.7096 18.7128 26.8875 18.0682C26.9474 17.851 26.9896 17.44 26.9473 16.9611C26.9192 16.642 26.8625 16.3931 26.8081 16.2253C26.7739 16.2251 26.7339 16.2259 26.6875 16.2284C26.4661 16.2404 26.1985 16.2852 25.8848 16.3565C25.7315 16.3914 25.5796 16.4296 25.4223 16.47L25.3374 16.4919C25.2111 16.5244 25.0721 16.5603 24.9475 16.5901C21.2884 17.4653 17.6544 18.8009 14.06 20.2931C12.2885 21.0285 12.0096 21.1703 11.1405 21.6123C10.8863 21.7415 10.5816 21.8964 10.1744 22.0994L10.1508 22.1121C10.1293 22.1238 10.0808 22.1502 10.0352 22.1739C10.0119 22.186 9.97561 22.2046 9.93386 22.2243L9.93163 22.2254C9.90622 22.2375 9.80326 22.2863 9.6727 22.3288L9.66846 22.3302C9.62399 22.3449 9.39835 22.4193 9.10473 22.4279C8.97269 22.4317 8.54694 22.4362 8.0839 22.1826C7.45585 21.8387 7.07016 21.1936 7.04518 20.4992C7.02673 19.9863 7.21089 19.6163 7.27056 19.5017C7.35119 19.3468 7.435 19.2359 7.47819 19.1813C7.5669 19.0692 7.64891 18.9907 7.67967 18.9616C7.93525 18.7197 8.25164 18.4497 8.49719 18.2402C8.6062 18.1472 8.70126 18.0661 8.77083 18.0046C9.05817 17.7509 9.26589 17.5407 9.44438 17.2969C10.1115 16.386 10.6157 15.2345 10.912 14.0141C10.912 14.0141 10.9147 14.0029 10.9205 13.9752C10.9265 13.9465 10.9342 13.9084 10.9434 13.8612C10.9618 13.7667 10.9843 13.6451 11.009 13.504C11.0586 13.221 11.1144 12.8746 11.1621 12.53L11.169 12.4805C11.0367 12.5239 10.8933 12.5747 10.7384 12.6338C10.0236 12.9063 9.22302 13.2917 8.41795 13.7218C7.18663 14.3796 6.07802 15.0664 5.31375 15.5399C5.06448 15.6944 4.85185 15.8261 4.68353 15.9267C3.10133 16.8727 1.5622 17.8536 0 18.852V33.5C0 35.1569 1.34315 36.5 3 36.5H33C34.6569 36.5 36 35.1569 36 33.5V31.4666Z" fill="white"/>
<path d="M11.2696 11.4045L11.2698 11.4113C11.2668 11.3787 11.2686 11.3732 11.2696 11.4045Z" fill="white"/>
<path d="M47.8 0.799998H57.43C59.89 0.799998 61.95 1.52 63.61 2.96C64.39 3.66 65.06 4.55 65.62 5.63C66.2 6.71 66.62 7.88 66.88 9.14C67.16 10.5 67.3 11.98 67.3 13.58V23.72C67.3 25.38 67.16 26.87 66.88 28.19C66.6 29.51 66.18 30.68 65.62 31.7C65.06 32.76 64.39 33.64 63.61 34.34C62.83 35.02 61.91 35.55 60.85 35.93C59.83 36.31 58.69 36.5 57.43 36.5H47.8V0.799998ZM54.85 29.9H55.84C58.78 29.9 60.25 27.84 60.25 23.72V13.58C60.25 9.46 58.78 7.4 55.84 7.4H54.85V29.9ZM89.35 10.1C89.35 11.88 88.98 13.4 88.24 14.66C87.9 15.26 87.48 15.79 86.98 16.25C86.5 16.71 85.9 17.1 85.18 17.42C84.5 17.7 83.77 17.88 82.99 17.96V18.44C83.71 18.44 84.44 18.67 85.18 19.13C85.88 19.59 86.43 20.2 86.83 20.96C86.93 21.16 87.01 21.36 87.07 21.56C87.15 21.76 87.22 21.96 87.28 22.16L90.85 36.5H83.8L79.63 21.41H77.35V36.5H70.3V0.799998H80.8C81.76 0.799998 82.68 0.949998 83.56 1.25C84.46 1.53 85.27 1.95 85.99 2.51C86.71 3.09 87.31 3.75 87.79 4.49C88.29 5.23 88.68 6.08 88.96 7.04C89.22 8.02 89.35 9.04 89.35 10.1ZM77.35 14.81H79C79.38 14.81 79.74 14.76 80.08 14.66C80.44 14.56 80.77 14.4 81.07 14.18C81.59 13.76 81.96 13.16 82.18 12.38C82.26 12.04 82.3 11.62 82.3 11.12C82.3 9.98 82.01 9.08 81.43 8.42C80.85 7.74 80.04 7.4 79 7.4H77.35V14.81ZM91.593 36.5L97.173 0.799998H107.253L112.833 36.5H105.783L104.733 28.31H99.693L98.643 36.5H91.593ZM100.533 21.71H103.893L102.693 10.52C102.653 10.06 102.623 9.65 102.603 9.29C102.583 8.91 102.563 8.51 102.543 8.09C102.523 7.65 102.513 7.12 102.513 6.5H101.913V7.37C101.913 7.51 101.913 7.65 101.913 7.79C101.893 7.95 101.883 8.1 101.883 8.24C101.883 8.44 101.873 8.65 101.853 8.87C101.833 9.07 101.823 9.27 101.823 9.47C101.823 9.87 101.793 10.22 101.733 10.52L100.533 21.71ZM146.598 17.51V21.98C146.598 23.58 146.308 25.12 145.728 26.6C145.148 28.06 144.338 29.41 143.298 30.65C142.258 31.89 141.038 32.97 139.638 33.89C138.238 34.81 136.708 35.52 135.048 36.02C133.348 36.54 131.588 36.8 129.768 36.8C127.828 36.8 125.998 36.51 124.278 35.93C122.558 35.33 120.998 34.49 119.598 33.41C118.438 32.51 117.308 31.33 116.208 29.87C115.108 28.41 114.258 26.63 113.658 24.53C113.098 22.65 112.818 20.69 112.818 18.65C112.818 16.55 113.078 14.61 113.598 12.83C114.138 11.03 114.898 9.38 115.878 7.88C116.978 6.18 118.268 4.8 119.748 3.74C121.248 2.68 122.728 1.9 124.188 1.4C125.068 1.12 125.988 0.899999 126.948 0.739999C127.928 0.579999 128.938 0.499999 129.978 0.499999C131.658 0.499999 133.228 0.699998 134.688 1.1C136.168 1.5 137.558 2.09 138.858 2.87C140.038 3.59 141.128 4.5 142.128 5.6C143.148 6.7 143.988 7.97 144.648 9.41C144.968 10.11 145.238 10.84 145.458 11.6C145.698 12.36 145.878 13.16 145.998 14H138.798C138.678 13.36 138.438 12.69 138.078 11.99C137.738 11.27 137.258 10.59 136.638 9.95C135.518 8.85 134.158 8.1 132.558 7.7C131.738 7.5 130.878 7.4 129.978 7.4C128.838 7.4 127.738 7.58 126.678 7.94C125.618 8.28 124.678 8.78 123.858 9.44C122.158 10.82 120.988 12.66 120.348 14.96C120.028 16.12 119.868 17.37 119.868 18.71C119.868 20.11 120.038 21.39 120.378 22.55C120.738 23.71 121.178 24.68 121.698 25.46C122.238 26.32 122.908 27.09 123.708 27.77C124.528 28.45 125.498 28.98 126.618 29.36C127.658 29.72 128.788 29.9 130.008 29.9C130.888 29.9 131.738 29.8 132.558 29.6C133.378 29.4 134.138 29.12 134.838 28.76C135.498 28.42 136.118 27.99 136.698 27.47C137.298 26.93 137.798 26.32 138.198 25.64C138.598 25 138.918 24.29 139.158 23.51H130.008V17.51H146.598ZM148.384 18.44C148.384 16.46 148.694 14.59 149.314 12.83C149.934 11.05 150.804 9.4 151.924 7.88C153.024 6.38 154.334 5.08 155.854 3.98C157.394 2.88 159.044 2.03 160.804 1.43C161.684 1.13 162.594 0.899999 163.534 0.739999C164.494 0.579999 165.464 0.499999 166.444 0.499999C168.464 0.499999 170.364 0.819998 172.144 1.46C173.924 2.08 175.554 2.92 177.034 3.98C178.734 5.24 180.114 6.65 181.174 8.21C182.234 9.75 183.024 11.28 183.544 12.8C183.844 13.7 184.074 14.62 184.234 15.56C184.394 16.5 184.474 17.46 184.474 18.44C184.474 20.4 184.164 22.31 183.544 24.17C182.944 26.03 182.094 27.73 180.994 29.27C179.874 30.79 178.544 32.12 177.004 33.26C175.484 34.38 173.854 35.24 172.114 35.84C170.294 36.48 168.404 36.8 166.444 36.8C164.444 36.8 162.544 36.48 160.744 35.84C158.944 35.2 157.304 34.33 155.824 33.23C154.324 32.11 153.014 30.8 151.894 29.3C150.794 27.8 149.934 26.1 149.314 24.2C149.014 23.3 148.784 22.37 148.624 21.41C148.464 20.43 148.384 19.44 148.384 18.44ZM155.434 18.5C155.434 19.72 155.624 20.92 156.004 22.1C156.384 23.28 156.904 24.32 157.564 25.22C158.284 26.22 159.104 27.07 160.024 27.77C160.944 28.45 161.934 28.96 162.994 29.3C164.114 29.7 165.274 29.9 166.474 29.9C167.674 29.9 168.824 29.71 169.924 29.33C171.024 28.93 172.024 28.38 172.924 27.68C173.824 27 174.614 26.19 175.294 25.25C175.974 24.29 176.494 23.24 176.854 22.1C177.034 21.54 177.174 20.96 177.274 20.36C177.374 19.76 177.424 19.14 177.424 18.5C177.424 17.32 177.234 16.17 176.854 15.05C176.474 13.91 175.954 12.89 175.294 11.99C173.894 10.09 172.094 8.75 169.894 7.97C168.794 7.59 167.654 7.4 166.474 7.4C165.514 7.4 164.474 7.56 163.354 7.88C162.234 8.18 161.114 8.74 159.994 9.56C159.074 10.24 158.264 11.04 157.564 11.96C156.884 12.88 156.364 13.89 156.004 14.99C155.824 15.55 155.684 16.13 155.584 16.73C155.484 17.31 155.434 17.9 155.434 18.5Z" fill="white"/>
</svg>
