<svg width="12" height="13" viewBox="0 0 12 13" fill="none" xmlns="http://www.w3.org/2000/svg">
<path d="M10.8523 3.38257C10.2994 2.90167 9.75678 2.38506 9.16001 1.97339C9.02806 1.88237 8.95823 1.86028 8.8752 2.0419C8.70081 2.42333 8.7275 2.99545 8.68511 3.41459C8.64856 3.77591 8.59093 4.14218 8.58668 4.50458C8.57478 5.51879 8.81197 6.5321 8.91894 7.53249C8.93272 7.66135 8.98848 7.99861 8.90857 8.12216C8.85992 8.19735 8.64975 8.1096 8.59035 8.09223C8.1434 7.96153 7.70558 7.58479 7.31141 7.33141C6.96575 7.10923 6.63795 6.93188 6.32115 6.65864C6.10821 6.47499 5.8843 6.30052 5.6487 6.15608C5.13807 5.84301 4.53178 5.67645 3.95307 5.61791C3.64767 5.58702 3.52172 5.63556 3.32186 5.95466C2.85056 6.70717 2.74606 7.82556 2.65152 8.70463C2.57391 9.42619 2.55296 10.1761 2.42254 10.8904C2.36036 11.231 2.35618 11.282 2.07442 11.2535C1.72327 11.218 1.37213 11.1825 1.02098 11.147" stroke="#FF0000" stroke-width="2" stroke-linecap="round"/>
</svg>
