<svg width="11" height="13" viewBox="0 0 11 13" fill="none" xmlns="http://www.w3.org/2000/svg">
<path d="M1 2.37785C1.70502 2.17731 2.46085 1.85825 3.21077 1.87569C4.27672 1.90048 5.38442 1.95926 6.43848 2.11887C6.52574 2.13208 7.50491 2.2041 7.53439 2.381C7.58906 2.70901 7.5003 3.07048 7.307 3.33479C6.6767 4.19662 5.68723 4.73323 4.76462 5.22026C4.38981 5.41811 4.02031 5.63266 3.64029 5.82032C3.61539 5.83262 3.34664 5.90393 3.46974 5.87717C4.62688 5.62562 5.89264 5.81147 7.06697 5.84875C7.71162 5.86921 8.43749 6.06543 9.0535 6.26564C9.25756 6.33195 9.39096 6.33128 9.3188 6.5783C9.12932 7.2269 8.97464 7.95622 8.66188 8.55536C8.22753 9.38742 7.54551 10.1922 6.7322 10.6714C6.18843 10.9917 5.58334 11.2638 4.99517 11.4925C4.86557 11.5429 4.70401 11.5465 4.58144 11.6125C4.48317 11.6654 4.80494 11.6275 4.91621 11.6188C5.65754 11.561 6.39576 11.5043 7.13961 11.4862C8.06774 11.4636 8.99683 11.4736 9.92518 11.4736" stroke="#FF0000" stroke-width="2" stroke-linecap="round"/>
</svg>
