<svg width="196" height="54" viewBox="0 0 196 54" fill="none" xmlns="http://www.w3.org/2000/svg">
<mask id="mask0_249_557" style="mask-type:luminance" maskUnits="userSpaceOnUse" x="1" y="2" width="194" height="50">
<path d="M195 2H1V52H195V2Z" fill="white"/>
</mask>
<g mask="url(#mask0_249_557)">
<mask id="mask1_249_557" style="mask-type:luminance" maskUnits="userSpaceOnUse" x="2" y="2" width="192" height="50">
<path d="M194 2H2V52H194V2Z" fill="white"/>
</mask>
<g mask="url(#mask1_249_557)">
<mask id="mask2_249_557" style="mask-type:luminance" maskUnits="userSpaceOnUse" x="2" y="2" width="192" height="50">
<path d="M194 2H2V52H194V2Z" fill="white"/>
</mask>
<g mask="url(#mask2_249_557)">
<path fill-rule="evenodd" clip-rule="evenodd" d="M38.6795 52L52 2L2 15.3205L13.1973 26.5177L41.3826 12.6179L27.2899 40.6102L38.6795 52Z" fill="white"/>
<path opacity="0.25" fill-rule="evenodd" clip-rule="evenodd" d="M41.3826 12.6191L27.2899 40.6114H13.1973V26.5187L41.3826 12.6191Z" fill="white"/>
<mask id="mask3_249_557" style="mask-type:luminance" maskUnits="userSpaceOnUse" x="67" y="2" width="127" height="50">
<path d="M194 2H67V52H194V2Z" fill="white"/>
</mask>
<g mask="url(#mask3_249_557)">
<path d="M78.3223 38.6842C76.765 38.6842 75.3143 38.4069 73.9703 37.8522C72.6476 37.2762 71.4845 36.4869 70.4818 35.4842C69.4791 34.4816 68.6893 33.3082 68.1133 31.9642C67.5586 30.5989 67.2812 29.1269 67.2812 27.5482C67.2812 25.9909 67.5586 24.5509 68.1133 23.2282C68.6893 21.8842 69.4791 20.7109 70.4818 19.7082C71.4845 18.7056 72.6476 17.9269 73.9703 17.3722C75.3143 16.7962 76.765 16.5082 78.3223 16.5082C79.8796 16.5082 81.3186 16.7962 82.6413 17.3722C83.964 17.9269 85.1274 18.7056 86.1301 19.7082C87.1328 20.7109 87.9115 21.8842 88.4663 23.2282C89.021 24.5509 89.298 25.9909 89.298 27.5482C89.298 29.1269 89.021 30.5989 88.4663 31.9642C87.9115 33.3082 87.1328 34.4816 86.1301 35.4842C85.1274 36.4869 83.964 37.2762 82.6413 37.8522C81.3186 38.4069 79.8796 38.6842 78.3223 38.6842ZM78.3223 35.5802C79.3676 35.5802 80.349 35.3776 81.2663 34.9722C82.205 34.5456 83.0259 33.9696 83.7299 33.2442C84.4339 32.5189 84.9783 31.6762 85.3623 30.7162C85.7463 29.7349 85.9383 28.6789 85.9383 27.5482C85.9383 26.4389 85.7463 25.4042 85.3623 24.4442C84.9783 23.4842 84.4339 22.6416 83.7299 21.9162C83.0259 21.1909 82.2153 20.6256 81.298 20.2202C80.3807 19.8149 79.389 19.6122 78.3223 19.6122C77.2556 19.6122 76.253 19.8149 75.3143 20.2202C74.3756 20.6256 73.5533 21.1909 72.8493 21.9162C72.1666 22.6416 71.6231 23.4842 71.2178 24.4442C70.8338 25.4042 70.6413 26.4389 70.6413 27.5482C70.6413 28.6789 70.8338 29.7349 71.2178 30.7162C71.6231 31.6762 72.1666 32.5189 72.8493 33.2442C73.5533 33.9696 74.3756 34.5456 75.3143 34.9722C76.253 35.3776 77.2556 35.5802 78.3223 35.5802ZM96.0359 45.5002H92.868V30.4282C92.868 28.8709 93.2307 27.4736 93.9561 26.2362C94.7027 24.9989 95.7054 24.0282 96.9641 23.3242C98.2227 22.5989 99.6414 22.2362 101.219 22.2362C102.797 22.2362 104.216 22.6096 105.475 23.3562C106.733 24.0816 107.725 25.0736 108.451 26.3322C109.176 27.5696 109.539 28.9349 109.539 30.4282C109.539 32.0069 109.187 33.4256 108.483 34.6842C107.779 35.9216 106.808 36.9029 105.571 37.6282C104.355 38.3322 102.947 38.6842 101.347 38.6842C100.089 38.6842 98.9262 38.3856 97.8596 37.7882C96.8142 37.1909 95.9716 36.4122 95.3316 35.4522C94.7129 34.4709 94.4041 33.4042 94.4041 32.2522L96.0359 33.0842V45.5002ZM101.219 35.7082C102.2 35.7082 103.075 35.4736 103.843 35.0042C104.632 34.5136 105.251 33.8736 105.699 33.0842C106.147 32.2736 106.371 31.3989 106.371 30.4602C106.371 29.5002 106.147 28.6256 105.699 27.8362C105.251 27.0469 104.632 26.4176 103.843 25.9482C103.075 25.4789 102.2 25.2442 101.219 25.2442C100.238 25.2442 99.3534 25.4789 98.5641 25.9482C97.7961 26.4176 97.1774 27.0469 96.7081 27.8362C96.2601 28.6256 96.0359 29.5002 96.0359 30.4602C96.0359 31.3989 96.2601 32.2736 96.7081 33.0842C97.1774 33.8736 97.7961 34.5136 98.5641 35.0042C99.3534 35.4736 100.238 35.7082 101.219 35.7082ZM120.253 38.7162C118.973 38.7162 117.885 38.4602 116.989 37.9482C116.093 37.4362 115.41 36.7322 114.941 35.8362C114.493 34.9189 114.269 33.8629 114.269 32.6682V18.5562H117.437V32.5722C117.437 33.5962 117.714 34.3962 118.269 34.9722C118.845 35.5482 119.602 35.8362 120.541 35.8362C121.053 35.8362 121.565 35.7509 122.077 35.5802C122.61 35.4096 123.069 35.1856 123.453 34.9082V37.8202C123.047 38.0762 122.557 38.2896 121.981 38.4602C121.405 38.6309 120.829 38.7162 120.253 38.7162ZM123.453 25.3722H111.165V22.6202H123.453V25.3722ZM128.163 22.6202H131.331V38.3002H128.163V22.6202ZM129.731 19.5162C129.368 19.5162 129.027 19.4309 128.707 19.2602C128.387 19.0682 128.131 18.8122 127.939 18.4922C127.747 18.1722 127.651 17.8202 127.651 17.4362C127.651 17.0522 127.747 16.7002 127.939 16.3802C128.131 16.0602 128.387 15.8042 128.707 15.6122C129.027 15.4202 129.368 15.3242 129.731 15.3242C130.115 15.3242 130.456 15.4202 130.755 15.6122C131.075 15.8042 131.32 16.0602 131.491 16.3802C131.683 16.7002 131.779 17.0522 131.779 17.4362C131.779 17.8202 131.683 18.1722 131.491 18.4922C131.32 18.8122 131.075 19.0682 130.755 19.2602C130.456 19.4309 130.115 19.5162 129.731 19.5162ZM155.948 22.1722C157.526 22.1722 158.849 22.5242 159.916 23.2282C161.004 23.9322 161.825 24.8816 162.38 26.0762C162.956 27.2709 163.244 28.5936 163.244 30.0442V38.3002H160.076V30.5562C160.076 29.5962 159.916 28.7109 159.596 27.9002C159.297 27.0896 158.817 26.4389 158.156 25.9482C157.516 25.4576 156.705 25.2122 155.724 25.2122C154.785 25.2122 153.996 25.4576 153.356 25.9482C152.716 26.4176 152.236 27.0576 151.916 27.8682C151.596 28.6576 151.436 29.5322 151.436 30.4922V38.3002H148.268V30.4922C148.268 29.5322 148.108 28.6576 147.788 27.8682C147.489 27.0576 147.009 26.4176 146.348 25.9482C145.708 25.4576 144.897 25.2122 143.916 25.2122C142.934 25.2122 142.124 25.4576 141.484 25.9482C140.865 26.4389 140.406 27.0896 140.108 27.9002C139.809 28.7109 139.66 29.5962 139.66 30.5562V38.3002H136.492V30.0762C136.492 28.6042 136.758 27.2709 137.292 26.0762C137.846 24.8816 138.657 23.9322 139.724 23.2282C140.812 22.5242 142.134 22.1722 143.692 22.1722C145.014 22.1722 146.156 22.4282 147.116 22.9402C148.097 23.4522 148.854 24.1562 149.388 25.0522C149.942 25.9482 150.23 26.9829 150.252 28.1562H149.548C149.59 26.9829 149.878 25.9482 150.412 25.0522C150.966 24.1562 151.713 23.4522 152.652 22.9402C153.612 22.4282 154.71 22.1722 155.948 22.1722ZM174.653 38.6842C173.138 38.6842 171.784 38.3109 170.589 37.5642C169.416 36.8176 168.488 35.8256 167.805 34.5882C167.122 33.3296 166.781 31.9429 166.781 30.4282C166.781 28.9349 167.144 27.5696 167.869 26.3322C168.616 25.0736 169.618 24.0816 170.877 23.3562C172.136 22.6096 173.554 22.2362 175.133 22.2362C176.712 22.2362 178.13 22.5989 179.389 23.3242C180.648 24.0282 181.64 24.9989 182.365 26.2362C183.112 27.4736 183.485 28.8709 183.485 30.4282V38.3002H180.477V32.4442L181.565 31.6122C181.565 32.9349 181.266 34.1296 180.669 35.1962C180.093 36.2629 179.282 37.1162 178.237 37.7562C177.213 38.3749 176.018 38.6842 174.653 38.6842ZM175.133 35.6762C176.114 35.6762 177 35.4416 177.789 34.9722C178.578 34.5029 179.197 33.8736 179.645 33.0842C180.093 32.2736 180.317 31.3989 180.317 30.4602C180.317 29.5002 180.093 28.6256 179.645 27.8362C179.197 27.0469 178.578 26.4176 177.789 25.9482C177 25.4576 176.114 25.2122 175.133 25.2122C174.152 25.2122 173.266 25.4576 172.477 25.9482C171.709 26.4176 171.09 27.0469 170.621 27.8362C170.173 28.6256 169.949 29.5002 169.949 30.4602C169.949 31.3989 170.173 32.2736 170.621 33.0842C171.09 33.8736 171.709 34.5029 172.477 34.9722C173.266 35.4416 174.152 35.6762 175.133 35.6762ZM188.663 15.4202H191.831V38.3002H188.663V15.4202Z" fill="white"/>
</g>
</g>
</g>
</g>
</svg>
