<svg width="196" height="54" viewBox="0 0 196 54" fill="none" xmlns="http://www.w3.org/2000/svg">
<mask id="mask0_249_479" style="mask-type:luminance" maskUnits="userSpaceOnUse" x="1" y="2" width="194" height="50">
<path d="M195 2H1V52H195V2Z" fill="white"/>
</mask>
<g mask="url(#mask0_249_479)">
<mask id="mask1_249_479" style="mask-type:luminance" maskUnits="userSpaceOnUse" x="2" y="2" width="192" height="50">
<path d="M194 2H2V52H194V2Z" fill="white"/>
</mask>
<g mask="url(#mask1_249_479)">
<mask id="mask2_249_479" style="mask-type:luminance" maskUnits="userSpaceOnUse" x="2" y="2" width="192" height="50">
<path d="M194 2H2V52H194V2Z" fill="white"/>
</mask>
<g mask="url(#mask2_249_479)">
<path d="M10.5106 37.6422C10.5106 43.1269 2 43.1269 2 37.6422V6.57835C2 1.09368 10.5106 1.09367 10.5106 6.57835V37.6422Z" fill="white"/>
<path d="M24.3407 47.7437C24.3407 53.2284 15.8301 53.2284 15.8301 47.7437V16.6799C15.8301 11.1952 24.3407 11.1952 24.3407 16.6799V47.7437Z" fill="white"/>
<path d="M38.1708 37.6422C38.1708 43.1269 29.6602 43.1269 29.6602 37.6422V6.57835C29.6602 1.09368 38.1708 1.09367 38.1708 6.57835V37.6422Z" fill="white"/>
<path d="M52.0008 47.7437C52.0008 53.2284 43.4902 53.2284 43.4902 47.7437V17.6799C43.4902 12.1952 52.0008 12.1952 52.0008 17.6799V47.7437Z" fill="white"/>
<mask id="mask3_249_479" style="mask-type:luminance" maskUnits="userSpaceOnUse" x="67" y="2" width="127" height="50">
<path d="M194 2H67V52H194V2Z" fill="white"/>
</mask>
<g mask="url(#mask3_249_479)">
<path d="M82.2919 34.1439V38.4999H67.2109V15.3999H82.2919V19.7559H72.3259V24.8709H80.9719V29.0289H72.3259V34.1439H82.2919ZM91.0787 38.4999H86.0957V21.3069H90.2867L90.6827 23.6499C92.2997 21.9009 94.2137 21.0099 96.5567 21.0099C98.6687 21.0099 100.088 21.6369 100.979 22.8249C101.243 23.1549 101.441 23.4849 101.606 23.8809C103.289 21.9339 105.203 21.0099 107.579 21.0099C109.757 21.0099 111.209 21.6369 112.1 22.8249C113.024 24.0459 113.288 25.4649 113.288 28.9629V38.4999H108.338V30.0849C108.338 28.1049 108.206 27.2469 107.678 26.5539C107.117 25.8939 106.358 25.6299 105.17 25.6299C104.081 25.6299 103.124 25.9599 102.134 26.7849C102.2 27.4119 102.2 28.1049 102.2 28.9629V38.4999H97.2167V30.0849C97.2167 28.1049 97.1177 27.2469 96.5567 26.5539C96.0287 25.8939 95.2697 25.6299 94.1477 25.6299C92.9267 25.6299 91.8047 26.0589 91.0787 26.8179V38.4999ZM125.498 38.7639C124.211 38.7639 122.825 38.5329 121.505 38.0379L117.71 38.4999V13.4199H122.693V23.5509C123.914 21.8679 125.564 20.9769 127.808 20.9769C131.636 20.9769 134.21 23.8479 134.21 29.2269C134.21 35.3649 130.712 38.7639 125.498 38.7639ZM122.693 27.6429V34.3089C123.452 34.6389 124.178 34.7709 124.937 34.7709C127.346 34.7709 129.029 33.1869 129.029 29.7219C129.029 26.8179 127.775 25.3989 125.96 25.3989C124.508 25.3989 123.452 26.1909 122.693 27.6429ZM142.351 38.4999H137.368V13.4199H142.351V38.4999ZM154.929 38.7639C148.659 38.7639 145.524 35.8599 145.524 29.8539C145.524 24.1119 149.418 20.9769 153.873 20.9769C158.592 20.9769 160.869 23.8149 160.869 28.7649C160.869 29.6889 160.803 30.5139 160.737 31.3389H150.606C151.101 33.9129 152.85 34.8039 156.051 34.8039C157.371 34.8039 158.724 34.6719 159.879 34.5069L159.648 38.4339C158.46 38.6319 156.843 38.7639 154.929 38.7639ZM153.741 24.6729C152.025 24.6729 150.771 25.8939 150.507 28.6329L156.15 28.3359C156.15 25.8279 155.391 24.6729 153.741 24.6729ZM169.196 38.4999H164.213V21.3069H168.404L168.8 23.6499C170.417 21.9009 172.331 21.0099 174.674 21.0099C176.786 21.0099 178.205 21.6369 179.096 22.8249C179.36 23.1549 179.558 23.4849 179.723 23.8809C181.406 21.9339 183.32 21.0099 185.696 21.0099C187.874 21.0099 189.326 21.6369 190.217 22.8249C191.141 24.0459 191.405 25.4649 191.405 28.9629V38.4999H186.455V30.0849C186.455 28.1049 186.323 27.2469 185.795 26.5539C185.234 25.8939 184.475 25.6299 183.287 25.6299C182.198 25.6299 181.241 25.9599 180.251 26.7849C180.317 27.4119 180.317 28.1049 180.317 28.9629V38.4999H175.334V30.0849C175.334 28.1049 175.235 27.2469 174.674 26.5539C174.146 25.8939 173.387 25.6299 172.265 25.6299C171.044 25.6299 169.922 26.0589 169.196 26.8179V38.4999Z" fill="white"/>
</g>
</g>
</g>
</g>
</svg>
