<svg xmlns="http://www.w3.org/2000/svg" width="1521" height="436" fill="none"><g fill="#fff" clip-path="url(#a)"><path d="M884.354 84v290c0 40.6-20.88 58-63.8 58h-63.8V26h64.38c42.34 0 63.22 17.4 63.22 58Zm-58 2.9c0-5.8-1.74-8.7-5.8-8.7h-5.8v301.6h5.8c4.06 0 5.8-2.9 5.8-8.7V86.9ZM954.988 26v406h-58V26h58Zm76.372 191.98h63.8V432h-58v-23.2l-1.16-.58c-5.8 17.98-17.4 27.26-31.33 27.26-21.455 0-37.115-23.2-37.115-63.8V86.32c0-40.02 27.84-63.8 64.385-63.8 36.54 0 63.22 23.2 63.22 63.8v93.38h-58V83.42c0-5.8-1.74-8.7-5.8-8.7s-5.8 2.9-5.8 8.7V376.9c0 5.8 1.74 8.7 5.8 8.7s5.8-2.9 5.8-8.7V270.18h-5.8v-52.2ZM1165.79 26v406h-58V26h58Zm125.67 0v52.2h-29V432h-58V78.2h-29V26h116Zm105.55 0 31.9 406h-63.8l-3.48-96.86h-16.24l-3.48 96.86h-58l31.9-406h81.2Zm-49.88 256.94h12.76l-4.06-122.96-1.74-70.18h-1.16l-1.74 70.18-4.06 122.96ZM1437.61 26h58v353.8h24.36V432h-82.36V26ZM128.401 84v290c0 40.6-20.88 58-63.8 58H.8V26h64.38c42.34 0 63.22 17.4 63.22 58Zm-58 2.9c0-5.8-1.74-8.7-5.8-8.7h-5.8v301.6h5.8c4.06 0 5.8-2.9 5.8-8.7V86.9Zm140.234 174c0-5.8-1.74-8.7-5.8-8.7h-5.8V432h-58V26h64.38c42.34 0 63.22 17.4 63.22 58v82.36c0 34.8-2.32 51.62-24.36 59.16v1.16c22.04 6.96 24.36 24.36 24.36 59.16v92.8c0 26.1.58 34.22 6.96 52.2V432h-59.74c-4.06-15.66-5.22-26.1-5.22-52.78V260.9Zm0-174c0-5.8-1.74-8.7-5.8-8.7h-5.8V200h5.8c4.06 0 5.8-2.9 5.8-8.7V86.9ZM392.573 26l31.9 406h-63.8l-3.48-96.86h-16.24l-3.48 96.86h-58l31.9-406h81.2Zm-49.88 256.94h12.76l-4.06-122.96-1.74-70.18h-1.16l-1.74 70.18-4.06 122.96Zm152.279-64.96h63.8V432h-58v-23.2l-1.16-.58c-5.8 17.98-17.4 27.26-31.32 27.26-21.46 0-37.12-23.2-37.12-63.8V86.32c0-40.02 27.84-63.8 64.38-63.8 36.54 0 63.22 23.2 63.22 63.8v93.38h-58V83.42c0-5.8-1.74-8.7-5.8-8.7s-5.8 2.9-5.8 8.7V376.9c0 5.8 1.74 8.7 5.8 8.7s5.8-2.9 5.8-8.7V270.18h-5.8v-52.2ZM699.01 86.32v285.36c0 40.6-26.68 63.8-63.8 63.8s-63.8-23.2-63.8-63.8V86.32c0-40.02 27.84-63.8 64.38-63.8 36.54 0 63.22 23.2 63.22 63.8Zm-58-2.9c0-5.8-1.74-8.7-5.8-8.7s-5.8 2.9-5.8 8.7v291.16c0 5.8 1.74 8.7 5.8 8.7s5.8-2.9 5.8-8.7V83.42Z"/></g><path fill="#fff" d="M1498.5 7.593V5.818h8.36v1.775h-3.12V16h-2.13V7.593h-3.11Zm9.74-1.775h2.65l2.81 6.841h.11l2.81-6.84h2.65V16h-2.08V9.373h-.09l-2.63 6.577h-1.43l-2.63-6.602h-.09V16h-2.08V5.818Z"/><defs><clipPath id="a"><path fill="#fff" d="M0 22h1520v414H0z"/></clipPath></defs></svg>