<svg width="204" height="54" viewBox="0 0 204 54" fill="none" xmlns="http://www.w3.org/2000/svg">
<mask id="mask0_249_297" style="mask-type:luminance" maskUnits="userSpaceOnUse" x="1" y="2" width="202" height="50">
<path d="M202.5 2H1.5V52H202.5V2Z" fill="white"/>
</mask>
<g mask="url(#mask0_249_297)">
<mask id="mask1_249_297" style="mask-type:luminance" maskUnits="userSpaceOnUse" x="2" y="2" width="200" height="50">
<path d="M201.5 2H2.5V52H201.5V2Z" fill="white"/>
</mask>
<g mask="url(#mask1_249_297)">
<mask id="mask2_249_297" style="mask-type:luminance" maskUnits="userSpaceOnUse" x="2" y="2" width="200" height="50">
<path d="M201.5 2H2.5V52H201.5V2Z" fill="white"/>
</mask>
<g mask="url(#mask2_249_297)">
<path d="M52.3648 14.0639C52.9911 11.607 51.5071 9.10752 49.0502 8.48124C46.5932 7.85497 44.0938 9.339 43.4675 11.7959C42.8413 14.2529 44.3253 16.7524 46.7822 17.3786C49.2391 18.0049 51.7386 16.5209 52.3648 14.0639Z" fill="white"/>
<path d="M36.9477 9.94653C41.1903 4.65246 33.7517 -0.668637 29.8643 4.18103C29.6462 4.39964 4.43819 35.4662 4.26759 35.725C-0.211735 41.314 6.9143 47.0255 11.351 41.4905C11.5689 41.2717 36.7771 10.2051 36.9477 9.94653Z" fill="white"/>
<path d="M42.5007 26.8616C46.5722 21.7814 39.4464 16.0701 35.4194 21.0942C35.1994 21.3142 18.0752 42.4938 17.9032 42.7547C13.8049 48.0625 20.9307 53.7737 24.9845 48.522C25.2045 48.302 42.329 27.1224 42.5007 26.8616Z" fill="white"/>
<path d="M11.0547 17.2128C13.4243 16.3112 14.6144 13.6593 13.7128 11.2896C12.8112 8.91988 10.1593 7.72977 7.78958 8.63141C5.41987 9.53304 4.22977 12.185 5.1314 14.5547C6.03303 16.9244 8.68498 18.1145 11.0547 17.2128Z" fill="white"/>
<mask id="mask3_249_297" style="mask-type:luminance" maskUnits="userSpaceOnUse" x="67" y="2" width="135" height="50">
<path d="M201.5 2H67.5V52H201.5V2Z" fill="white"/>
</mask>
<g mask="url(#mask3_249_297)">
<path d="M74.3961 38.849L67.5801 15.937H69.9801L74.6201 31.681C74.9401 32.801 75.2281 33.953 75.5161 35.457C75.9001 33.793 76.2201 32.801 76.5721 31.681L81.5641 15.937H83.9641L88.9561 31.681C89.3081 32.833 89.6281 33.985 89.9801 35.457C90.3321 33.697 90.6201 32.577 90.8761 31.713L95.6121 15.937H97.9481L91.0681 38.849H88.8921L82.7481 19.393L76.6041 38.849H74.3961ZM98.9778 38.849H96.6418L105.058 15.937H107.906L116.418 38.849H114.018L111.778 32.769H101.218L98.9778 38.849ZM106.178 19.169L101.922 30.753H111.042L106.754 19.169C106.658 18.849 106.498 18.465 106.466 18.241C106.434 18.433 106.306 18.849 106.178 19.169ZM122.727 29.281L114.951 15.937H117.543L123.207 25.825C123.463 26.305 123.655 26.689 123.879 27.201C124.167 26.625 124.167 26.625 124.583 25.825L130.183 15.937H132.711L125.031 29.281V38.849H122.727V29.281ZM139.726 15.457V35.073H149.518V38.849H135.63V15.457H139.726ZM156.944 15.457V38.849H152.848V15.457H156.944ZM166.162 38.849H162.13V15.457H166.194L177.17 32.033V15.457H181.202V38.849H177.17L166.162 22.273V38.849ZM200.908 38.849H186.38V15.457H200.908V19.233H190.476V25.249H199.82V28.865H190.476V35.073H200.908V38.849Z" fill="white"/>
</g>
</g>
</g>
</g>
</svg>
