<svg width="10" height="13" viewBox="0 0 10 13" fill="none" xmlns="http://www.w3.org/2000/svg">
<path d="M-4.95396e-07 1.16276C-4.77911e-07 1.56276 0.333333 1.82943 0.833333 1.82943L1.83333 1.82943C3.08333 1.82943 3.75 1.82943 4.08333 1.96276C4.41667 2.09609 4.66667 2.29609 4.83333 2.56276C5 2.82943 5 3.36276 5 4.36276L5 10.2294L3.08333 8.69609C2.75 8.42943 2.25 8.42943 1.91667 8.69609C1.58333 8.96276 1.58333 9.36276 1.91667 9.62943L5.25 12.2961C5.33333 12.3628 5.41667 12.4294 5.5 12.4294C5.58333 12.4961 5.75 12.4961 5.83333 12.4961C5.91667 12.4961 6.08333 12.4961 6.16667 12.4294C6.25 12.4294 6.33333 12.3628 6.41667 12.2961L9.75 9.62943C9.91667 9.49609 10 9.36276 10 9.16276C10 8.96276 9.91667 8.82943 9.75 8.69609C9.41667 8.42943 8.91667 8.42943 8.58333 8.69609L6.66667 10.2294L6.66667 4.36276C6.66667 3.16276 6.66667 2.49609 6.33333 1.96276C6 1.42943 5.5 1.02943 4.91667 0.829427C4.16667 0.496094 3.33333 0.496094 1.83333 0.496094L0.833333 0.496094C0.333333 0.496094 -5.1288e-07 0.76276 -4.95396e-07 1.16276Z" fill="white"/>
</svg>
