<svg width="186" height="54" viewBox="0 0 186 54" fill="none" xmlns="http://www.w3.org/2000/svg">
<mask id="mask0_249_445" style="mask-type:luminance" maskUnits="userSpaceOnUse" x="1" y="2" width="184" height="50">
<path d="M185 2H1V52H185V2Z" fill="white"/>
</mask>
<g mask="url(#mask0_249_445)">
<mask id="mask1_249_445" style="mask-type:luminance" maskUnits="userSpaceOnUse" x="2" y="2" width="182" height="50">
<path d="M184 2H2V52H184V2Z" fill="white"/>
</mask>
<g mask="url(#mask1_249_445)">
<path d="M30.5 51.8143C58.3618 47.8341 58.3624 6.22838 30.5001 2.24805C47.246 14.2673 47.2007 39.7898 30.5 51.8143Z" fill="white"/>
<path d="M19.4727 50.8219C21.2075 51.3795 22.9423 51.7513 24.801 51.8752C39.1998 38.6653 39.2092 15.3305 24.8011 2.12305C22.9423 2.30892 21.1455 2.68067 19.4727 3.17633C31.569 16.456 31.5651 37.5466 19.4727 50.8219Z" fill="white"/>
<path d="M13.0282 47.7238C24.772 36.6398 24.8835 17.392 13.0282 6.33594C-1.44125 15.9823 -1.44734 38.0734 13.0282 47.7238Z" fill="white"/>
<path d="M79.431 18.9854C74.936 18.9854 72.363 22.2404 72.363 27.1384C72.363 32.1914 75.277 34.9504 79.462 34.9504C83.399 34.9504 85.786 32.7804 85.786 29.1534V29.0604H78.935V25.5574H89.475V38.2984H86.127L85.879 35.6944C84.639 37.4304 82.066 38.6394 78.997 38.6394C72.642 38.6394 68.209 34.0204 68.209 27.0454C68.209 20.1634 72.704 15.2654 79.524 15.2654C84.701 15.2654 88.7 18.2724 89.351 22.8914H85.166C84.453 20.2254 82.159 18.9854 79.431 18.9854ZM102.812 22.9224V26.4254H101.417C98.689 26.4254 96.984 27.8824 96.984 30.8584V38.2984H93.202V23.0154H96.767L96.984 25.2474C97.635 23.7284 99.092 22.7054 101.138 22.7054C101.665 22.7054 102.192 22.7674 102.812 22.9224ZM109.323 38.7014C106.068 38.7014 104.084 36.8104 104.084 33.9274C104.084 31.1064 106.13 29.3394 109.757 29.0604L114.345 28.7194V28.3784C114.345 26.3014 113.105 25.4644 111.183 25.4644C108.951 25.4644 107.711 26.3944 107.711 28.0064H104.487C104.487 24.6894 107.215 22.5194 111.369 22.5194C115.492 22.5194 118.034 24.7514 118.034 28.9984V38.2984H114.717L114.438 36.0354C113.787 37.6164 111.71 38.7014 109.323 38.7014ZM110.563 35.8494C112.888 35.8494 114.376 34.4544 114.376 32.0984V31.2924L111.183 31.5404C108.827 31.7574 107.928 32.5324 107.928 33.7724C107.928 35.1674 108.858 35.8494 110.563 35.8494ZM121.75 45.3974V22.9844H125.253L125.501 25.3094C126.431 23.5424 128.446 22.5194 130.771 22.5194C135.08 22.5194 137.932 25.6504 137.932 30.4554C137.932 35.2294 135.328 38.7014 130.771 38.7014C128.477 38.7014 126.493 37.8024 125.532 36.2524V45.3974H121.75ZM125.563 30.6414C125.563 33.4004 127.268 35.2914 129.872 35.2914C132.538 35.2914 134.119 33.3694 134.119 30.6414C134.119 27.9134 132.538 25.9604 129.872 25.9604C127.268 25.9604 125.563 27.8824 125.563 30.6414ZM144.725 38.2984H140.943V15.2344H144.756V24.9684C145.717 23.4804 147.515 22.5194 149.716 22.5194C153.498 22.5194 155.482 24.9064 155.482 28.8744V38.2984H151.7V29.7734C151.7 27.2004 150.429 25.9604 148.507 25.9604C146.12 25.9604 144.725 27.6344 144.725 29.9284V38.2984ZM158.299 30.6104C158.299 25.8364 161.74 22.5504 166.483 22.5504C171.226 22.5504 174.667 25.8364 174.667 30.6104C174.667 35.3844 171.226 38.6704 166.483 38.6704C161.74 38.6704 158.299 35.3844 158.299 30.6104ZM162.081 30.6104C162.081 33.4004 163.879 35.2914 166.483 35.2914C169.087 35.2914 170.885 33.4004 170.885 30.6104C170.885 27.8204 169.087 25.9294 166.483 25.9294C163.879 25.9294 162.081 27.8204 162.081 30.6104Z" fill="white"/>
</g>
</g>
</svg>
