<svg width="198" height="54" viewBox="0 0 198 54" fill="none" xmlns="http://www.w3.org/2000/svg">
<path fill-rule="evenodd" clip-rule="evenodd" d="M27.4904 50.5583C37.8826 50.5583 47.0983 43.6955 50.0394 33.6955C41.8604 35.0586 33.042 31.6705 27.4904 25.6562C21.9388 31.6705 13.1205 35.0586 4.94141 33.6955C8.07866 43.8915 17.0983 50.5583 27.4904 50.5583Z" fill="white"/>
<path fill-rule="evenodd" clip-rule="evenodd" d="M51.0206 28.7941C51.0206 17.8019 45.1748 7.72078 34.1578 4.48047C35.1696 10.5512 33.4252 17.1721 30.2363 22.3236C35.5078 27.8462 43.532 30.6663 51.0206 28.7941Z" fill="white"/>
<path fill-rule="evenodd" clip-rule="evenodd" d="M24.5492 22.1275C21.2811 17.0997 19.6293 10.4706 20.6276 4.48047C9.69973 7.75884 3.96094 17.895 3.96094 28.7941C11.4152 30.6577 19.5239 27.9066 24.5492 22.1275Z" fill="white"/>
<path fill-rule="evenodd" clip-rule="evenodd" d="M27.4896 18.0098C29.0583 15.0686 29.8426 11.7353 29.8426 8.20588C29.8426 6.63725 29.6465 5.06863 29.2544 3.5C28.6661 3.5 28.0779 3.5 27.4896 3.5C26.9014 3.5 26.3132 3.5 25.7249 3.5C25.3328 5.06863 25.1367 6.63725 25.1367 8.20588C25.1367 11.7353 26.1171 15.0686 27.4896 18.0098Z" fill="white"/>
<mask id="mask0_249_390" style="mask-type:luminance" maskUnits="userSpaceOnUse" x="67" y="2" width="129" height="50">
<path d="M196 2H67V52H196V2Z" fill="white"/>
</mask>
<g mask="url(#mask0_249_390)">
<path d="M80.539 32.1635C80.539 31.0415 79.219 30.6785 77.272 30.1835L74.467 29.4905C70.639 28.5335 67.207 27.1475 67.207 22.5275C67.207 17.8745 71.266 15.3005 76.15 15.3005C80.473 15.3005 83.212 16.5215 84.697 17.3795V23.3525C82.486 21.9665 78.856 20.6795 75.952 20.6795C74.236 20.6795 73.213 21.1085 73.213 22.0985C73.213 23.2535 74.566 23.6165 76.81 24.2105L79.252 24.8705C82.684 25.7945 86.314 27.0485 86.314 31.8005C86.314 36.2885 82.387 38.7305 77.14 38.7305C73.015 38.7305 69.682 37.4105 68.164 36.3215V30.5465C70.408 32.1965 74.5 33.5495 77.503 33.5495C79.813 33.5495 80.539 33.0545 80.539 32.1635ZM91.6208 19.2935C89.4428 19.2935 88.1228 18.3035 88.1228 16.6205C88.1228 14.9375 89.4428 13.9805 91.6208 13.9805C93.8318 13.9805 95.0858 14.9375 95.0858 16.6205C95.0858 18.3035 93.8318 19.2935 91.6208 19.2935ZM88.9478 20.9105H94.2278V38.4005H88.9478V20.9105ZM114.143 34.6055C114.143 41.5025 109.886 43.9445 104.969 43.9445C102.197 43.9445 99.8208 43.1525 98.3688 42.2615V36.9485C99.9858 38.1695 102.131 38.9945 104.375 38.9945C107.873 38.9945 108.863 37.4765 108.863 35.4305V35.2325C107.741 35.9585 106.289 36.5195 104.375 36.5195C100.25 36.5195 97.0818 33.7475 97.0818 29.3255C97.0818 23.2205 101.999 20.5805 106.751 20.5805C110.051 20.5805 112.394 21.4385 114.143 22.1315V34.6055ZM102.56 28.5995C102.56 31.0085 104.177 31.7675 105.926 31.7675C106.949 31.7675 108.005 31.5035 108.863 31.1735V25.5965C108.236 25.4315 107.51 25.2995 106.718 25.2995C104.474 25.2995 102.56 26.2895 102.56 28.5995ZM126.245 25.6955C124.892 25.6955 123.605 25.9925 122.648 26.3885V38.4005H117.368V20.9105H122.318V22.9895C123.704 21.7355 125.948 20.5805 128.654 20.5805C132.977 20.5805 134.528 23.3525 134.528 27.1805V38.4005H129.248V28.5995C129.248 26.9165 128.489 25.6955 126.245 25.6955ZM145.919 33.6155C147.272 33.6155 148.559 33.3185 149.516 32.9225V20.9105H154.796V38.4005H149.846V36.3215C148.46 37.5755 146.216 38.7305 143.51 38.7305C139.187 38.7305 137.636 35.9585 137.636 32.1305V20.9105H142.916V30.7115C142.916 32.3945 143.675 33.6155 145.919 33.6155ZM166.649 25.6955C165.428 25.6955 164.273 26.0255 163.382 26.3885V38.4005H158.102V20.9105H163.052V22.9895C164.405 21.7355 166.484 20.5805 169.058 20.5805C171.599 20.5805 173.117 21.6365 173.909 23.3525C175.196 21.9665 177.473 20.5805 180.278 20.5805C184.37 20.5805 185.822 23.3525 185.822 27.1805V38.4005H180.542V28.5995C180.542 26.8835 179.882 25.6955 177.869 25.6955C176.648 25.6955 175.46 26.0255 174.569 26.3885C174.602 26.6525 174.602 26.9165 174.602 27.1805V38.4005H169.322V28.5995C169.322 26.8835 168.662 25.6955 166.649 25.6955ZM191.779 38.8955C189.964 38.8955 188.512 37.4435 188.512 35.6285C188.512 33.8135 189.964 32.3285 191.779 32.3285C193.594 32.3285 195.079 33.8135 195.079 35.6285C195.079 37.4435 193.594 38.8955 191.779 38.8955Z" fill="white"/>
</g>
</svg>
