<svg width="190" height="54" viewBox="0 0 190 54" fill="none" xmlns="http://www.w3.org/2000/svg">
<mask id="mask0_249_360" style="mask-type:luminance" maskUnits="userSpaceOnUse" x="1" y="2" width="188" height="50">
<path d="M189 2H1V52H189V2Z" fill="white"/>
</mask>
<g mask="url(#mask0_249_360)">
<mask id="mask1_249_360" style="mask-type:luminance" maskUnits="userSpaceOnUse" x="2" y="2" width="186" height="50">
<path d="M188 2H2V52H188V2Z" fill="white"/>
</mask>
<g mask="url(#mask1_249_360)">
<mask id="mask2_249_360" style="mask-type:luminance" maskUnits="userSpaceOnUse" x="2" y="2" width="186" height="50">
<path d="M188 2H2V52H188V2Z" fill="white"/>
</mask>
<g mask="url(#mask2_249_360)">
<path fill-rule="evenodd" clip-rule="evenodd" d="M23.128 2C18.467 2 14.2297 3.69492 10.8398 6.23729L33.9331 33.9915L52.789 19.7966C51.9416 9.83898 43.467 2 33.0856 2" fill="white"/>
<path fill-rule="evenodd" clip-rule="evenodd" d="M33.0854 51.9988C44.7781 51.9988 53.0006 42.2613 53.0006 31.0242L35.8396 43.7361C33.9328 45.2191 31.1786 44.7954 29.6956 43.1005L5.11927 13.4395C2.2502 19.1776 3.00063 25.6556 3.00063 31.8717C3.00063 42.8886 11.8989 51.7869 22.9159 51.7869" fill="white"/>
<mask id="mask3_249_360" style="mask-type:luminance" maskUnits="userSpaceOnUse" x="68" y="2" width="120" height="50">
<path d="M188 2H68V52H188V2Z" fill="white"/>
</mask>
<g mask="url(#mask3_249_360)">
<path d="M77.4392 16.9242L77.8732 17.2962C78.0592 19.4042 78.1212 21.6052 78.1212 23.7132C78.1212 27.9912 77.5632 32.3622 77.1602 35.2452L77.9352 35.2762C80.9732 32.2382 83.7942 27.3712 83.7942 23.8062C83.7942 20.9542 82.6162 19.0632 81.4692 17.8542L81.5312 17.4512C83.4222 17.0792 85.4992 16.9552 87.0182 16.9242C87.6692 17.4202 88.0722 18.1022 88.0722 19.3732C88.0722 20.2412 87.8552 21.2952 87.4212 22.6902C86.1502 26.8132 78.5862 36.7022 74.9282 38.9962C73.3472 38.8722 71.8282 38.3762 70.6812 37.7252C71.0222 33.7882 71.2702 29.6962 71.2702 25.8832C71.2702 23.6822 71.1462 21.6672 70.9912 19.9932L68.2012 17.7922L68.2632 17.3892C70.4332 17.1722 75.2692 16.9242 77.4392 16.9242ZM93.7045 19.5282C92.4955 19.5282 91.5965 18.7532 91.5965 17.6682C91.5965 16.0252 93.2085 15.0332 94.5415 15.0332C95.7505 15.0332 96.6185 15.8082 96.6185 16.8622C96.6185 18.5362 95.0375 19.5282 93.7045 19.5282ZM98.5405 34.9972C97.0525 36.6712 94.0145 38.9962 91.4105 38.9962C89.2095 38.9962 87.5045 37.8492 87.5045 35.5242C87.5045 34.4082 87.9385 32.9202 88.4965 31.1532C89.0545 29.4172 89.6435 27.4642 90.0465 25.2012L88.8685 23.4342L88.9615 22.9692C91.7515 22.6592 94.1075 22.5352 96.4015 22.5042L96.8355 22.8142C96.8355 24.0542 96.4635 26.6892 95.7195 29.3242C94.9135 32.1762 93.5805 35.3072 93.5805 36.8882C93.5805 37.1672 93.6115 37.5082 93.7045 37.6322C95.1305 37.0122 97.3005 35.4622 98.4475 34.1912L98.5405 34.2842V34.9972ZM111.426 34.0672C111.426 37.6012 107.799 38.9962 104.792 38.9962C101.506 38.9962 98.0959 37.9732 96.9489 36.3922C97.5379 34.9662 98.5299 33.6952 99.5529 32.6412H99.8629C100.576 34.4702 102.343 38.2522 104.358 38.2522C105.288 38.2522 106.125 37.6942 106.125 36.5472C106.125 34.9352 104.978 34.4082 103.49 33.4782C101.041 31.9592 99.4599 30.8742 99.4599 28.6422C99.4599 24.1472 104.854 22.5042 108.419 22.5042C111.736 22.5042 113.937 23.7132 113.937 25.6662C113.937 26.8752 113.224 27.6192 112.201 28.1462C110.651 28.3322 109.132 28.3632 107.582 28.3632L107.489 28.0532C108.233 27.2162 108.977 26.4102 108.977 25.6042C108.977 24.7052 108.047 23.4962 106.807 23.4962C105.846 23.4962 104.885 24.1472 104.885 25.7592C104.885 27.3712 105.908 28.3012 107.396 29.2312C109.845 30.7502 111.426 31.8352 111.426 34.0672ZM136.524 34.9972C135.036 36.6712 131.378 38.9962 128.774 38.9962C126.573 38.9962 125.364 37.8492 125.364 35.8342C125.364 34.1602 126.263 31.3702 127.565 28.7972L127.069 28.6422C126.976 28.8282 126.48 29.9442 126.356 30.1922C124.372 34.5012 122.295 38.9962 117.986 38.9962C115.537 38.9962 114.266 37.5392 114.266 35.5242C114.266 34.4392 115.041 32.4242 115.785 30.3472C116.56 28.2702 117.335 26.1622 117.335 24.8602C117.335 24.3952 117.149 24.2712 116.87 24.2712C116.374 24.2712 115.63 24.5502 115.01 24.9222L114.917 24.8602L115.041 24.0542C116.436 23.3102 118.358 22.5042 120.063 22.5042C122.419 22.5042 123.473 23.7132 123.473 25.7282C123.473 26.8442 122.822 28.9522 122.171 30.9362C121.52 32.9512 120.869 34.8422 120.869 35.5552C120.869 36.1132 121.179 36.2992 121.52 36.2992C122.202 36.2992 123.194 34.9972 124.341 32.7652C125.612 30.3162 127.131 26.7512 128.774 22.5042C130.975 22.6592 133.486 23.7442 134.385 24.6122C134.385 26.7822 130.975 34.0362 130.975 37.1672C130.975 37.3532 131.006 37.5392 131.068 37.6322C133.641 36.5782 135.346 35.2762 136.431 34.1292L136.524 34.2222V34.9972ZM157.101 34.6872C155.613 36.3612 151.645 38.9962 149.041 38.9962C146.84 38.9962 145.631 37.8492 145.631 35.8342C145.631 34.6872 146.065 33.6332 147.646 30.8432L146.592 30.9362C145.352 33.9122 143.182 38.9962 139.741 38.9962C137.261 38.9962 135.494 36.5162 135.494 33.0442C135.494 26.8132 138.904 22.5042 143.833 22.5042C145.476 22.5042 146.747 23.1862 147.553 24.5812L147.243 25.3562C146.561 24.4572 145.786 23.4962 144.794 23.4962C143.399 23.4962 142.19 27.7742 142.19 32.6102C142.19 34.5632 142.5 35.6482 143.089 35.6482C143.585 35.6482 144.143 34.6252 145.29 31.8972C146.158 29.8822 147.336 26.9682 148.762 22.8452C151.025 23.1552 153.505 24.3952 154.559 25.5732C154.559 26.6582 153.722 29.1072 152.885 31.4942C152.079 33.8812 151.242 36.2372 151.242 37.1672C151.242 37.3532 151.273 37.5392 151.335 37.6322C153.908 36.5782 155.923 34.9662 157.008 33.8192L157.101 33.9122V34.6872ZM159.584 38.9962C157.166 38.9962 155.678 37.6632 155.678 35.5242C155.678 34.3152 155.957 33.0442 156.608 31.0602L159.305 22.8452C160.018 20.6752 160.328 19.4042 160.483 18.1952L159.367 16.1802L159.46 15.7152C161.909 15.4362 164.327 15.2812 166.9 15.2502L167.303 15.5292C167.303 16.6762 166.714 20.4272 165.071 25.6042C164.172 28.4252 161.785 34.6252 161.785 36.8882C161.785 37.1672 161.847 37.5082 161.878 37.6322C163.521 36.9502 166.125 35.2452 167.179 34.0672L167.272 34.1602V34.8732C165.319 37.0742 161.692 38.9962 159.584 38.9962ZM181.551 38.1282C179.567 42.9642 174.948 46.2502 169.988 46.2502C167.105 46.2502 163.943 45.3202 163.602 42.5302C164.532 40.7012 166.764 38.6552 168.593 37.8492C167.105 37.3842 166.361 36.1442 166.361 34.5942C166.361 33.4782 167.167 31.6802 168.004 29.8512C168.81 27.9912 169.616 26.1002 169.616 24.8292C169.616 24.3642 169.43 24.2402 169.151 24.2402C168.841 24.2402 168.159 24.4262 167.88 24.6122L167.787 24.5502L167.911 23.8372C168.872 23.1862 170.639 22.5042 172.344 22.5042C174.7 22.5042 175.754 23.6822 175.754 25.6972C175.754 26.8132 175.041 28.7042 174.359 30.5022C173.646 32.2692 172.964 33.9122 172.964 34.6252C172.964 35.1832 173.274 35.3692 173.615 35.3692C174.111 35.3692 174.855 34.5632 175.785 33.0132C177.025 30.8742 178.575 27.4022 180.125 22.8142C182.016 23.1242 184.837 24.1782 185.922 25.5732C185.55 26.5032 182.853 34.9972 181.551 38.1282ZM168.965 39.8332C168.965 42.4062 170.391 45.1032 172.778 45.1032C173.615 45.1032 174.545 42.6232 175.506 39.5852C176.436 36.5782 177.397 33.0442 178.327 30.8122L177.707 30.9362C177.273 31.8042 176.808 32.6412 176.312 33.4472C174.731 35.9892 172.747 38.0662 170.081 38.0662C169.771 38.0662 169.492 38.0352 169.213 38.0042C169.058 38.5932 168.965 39.2132 168.965 39.8332Z" fill="white"/>
</g>
</g>
</g>
</g>
</svg>
