<svg width="168" height="54" viewBox="0 0 168 54" fill="none" xmlns="http://www.w3.org/2000/svg">
<mask id="mask0_249_631" style="mask-type:luminance" maskUnits="userSpaceOnUse" x="1" y="2" width="166" height="50">
<path d="M167 2H1V52H167V2Z" fill="white"/>
</mask>
<g mask="url(#mask0_249_631)">
<mask id="mask1_249_631" style="mask-type:luminance" maskUnits="userSpaceOnUse" x="2" y="2" width="164" height="50">
<path d="M166 2H2V52H166V2Z" fill="white"/>
</mask>
<g mask="url(#mask1_249_631)">
<mask id="mask2_249_631" style="mask-type:luminance" maskUnits="userSpaceOnUse" x="2" y="2" width="164" height="50">
<path d="M166 2H2V52H166V2Z" fill="white"/>
</mask>
<g mask="url(#mask2_249_631)">
<path fill-rule="evenodd" clip-rule="evenodd" d="M18.1957 3.60156C5.53127 8.41762 -1.00528 23.2435 3.60062 35.805L26.9528 12.4529L18.1957 3.60156Z" fill="white"/>
<path fill-rule="evenodd" clip-rule="evenodd" d="M18.1016 3.59923L41.5479 26.9514L50.305 18.1001C45.3806 5.33339 30.8814 -1.08671 18.1016 3.59923Z" fill="white"/>
<path fill-rule="evenodd" clip-rule="evenodd" d="M12.4528 26.9531L3.60156 35.8043C8.4627 48.5873 23.2795 54.9324 35.8991 50.3052L12.4528 26.9531Z" fill="white"/>
<path fill-rule="evenodd" clip-rule="evenodd" d="M50.3522 18L27 41.3522L35.8512 50.2034C48.2895 45.2982 55.4126 30.6511 50.3522 18Z" fill="white"/>
<mask id="mask3_249_631" style="mask-type:luminance" maskUnits="userSpaceOnUse" x="67" y="2" width="99" height="50">
<path d="M166 2H67V52H166V2Z" fill="white"/>
</mask>
<g mask="url(#mask3_249_631)">
<path d="M67.0469 38.4986V16.7986H75.1689C81.6789 16.7986 86.6389 21.5106 86.6389 27.6796C86.6389 33.8176 81.6789 38.4986 75.1689 38.4986H67.0469ZM71.2009 34.8096H75.1689C79.1989 34.8096 82.3609 31.7096 82.3609 27.6796C82.3609 23.6186 79.1989 20.4876 75.1689 20.4876H71.2009V34.8096ZM97.3448 38.8086C92.5088 38.8086 88.7888 35.1506 88.7888 30.4696C88.7888 25.8196 92.3848 22.1926 96.9728 22.1926C101.499 22.1926 104.878 25.8506 104.878 30.7486V31.7716H92.7568C93.2838 33.9416 95.1438 35.4916 97.5308 35.4916C98.9878 35.4916 100.321 34.9956 101.189 34.1586L103.762 36.5456C101.809 38.0956 99.8558 38.8086 97.3448 38.8086ZM92.7258 28.9506H101.003C100.538 26.9046 98.8948 25.4476 96.8798 25.4476C94.8028 25.4476 93.2218 26.8116 92.7258 28.9506ZM104.658 38.4986L110.827 30.3146L104.844 22.4406H109.432L113.121 27.4316L116.81 22.4406H121.212L115.291 30.2526L121.584 38.4986H116.996L113.028 33.1666L109.06 38.4986H104.658ZM125.241 20.3326C123.97 20.3326 122.947 19.3096 122.947 18.0696C122.947 16.7986 123.97 15.8066 125.241 15.8066C126.481 15.8066 127.504 16.7986 127.504 18.0696C127.504 19.3096 126.481 20.3326 125.241 20.3326ZM123.257 38.4986V22.4406H127.194V38.4986H123.257ZM138.673 45.1326C136.224 45.1326 133.899 44.6056 132.039 43.6446L133.434 40.5756C135.232 41.4746 136.875 41.8776 138.58 41.8776C141.153 41.8776 142.517 40.7306 142.517 38.4986V37.0726C141.215 38.0646 139.665 38.5916 137.991 38.5916C133.465 38.5916 129.9 34.9956 129.9 30.3766C129.9 25.7886 133.496 22.1926 138.115 22.1926C139.727 22.1926 141.277 22.6886 142.548 23.5876V22.4406H146.454V38.5296C146.454 42.7766 143.695 45.1326 138.673 45.1326ZM138.58 35.2436C140.192 35.2436 141.556 34.6856 142.517 33.6626V27.1526C141.556 26.1606 140.161 25.5716 138.611 25.5716C135.852 25.5716 133.744 27.6486 133.744 30.3766C133.744 33.1356 135.852 35.2436 138.58 35.2436ZM149.867 38.4986V22.4406H153.804V23.8356C155.013 22.7196 156.594 22.1306 158.392 22.1306C162.112 22.1306 164.716 24.7656 164.716 28.5166V38.4986H160.81V29.1056C160.81 26.9046 159.415 25.5406 157.276 25.5406C155.788 25.5406 154.579 26.1606 153.804 27.2766V38.4986H149.867Z" fill="white"/>
<path d="M136.035 19.6978C136.035 19.6089 136.021 19.5291 135.994 19.4585C135.969 19.3856 135.921 19.3195 135.851 19.2603C135.78 19.1987 135.681 19.1383 135.553 19.0791C135.426 19.0199 135.26 18.9583 135.058 18.8945C134.832 18.8216 134.618 18.7396 134.415 18.6484C134.215 18.5573 134.037 18.4513 133.882 18.3306C133.729 18.2075 133.608 18.0651 133.52 17.9033C133.433 17.7415 133.39 17.5535 133.39 17.3394C133.39 17.132 133.435 16.944 133.526 16.7754C133.618 16.6045 133.745 16.4587 133.909 16.3379C134.073 16.2148 134.267 16.1203 134.49 16.0542C134.716 15.9881 134.963 15.9551 135.232 15.9551C135.599 15.9551 135.919 16.0212 136.192 16.1533C136.466 16.2855 136.678 16.4666 136.828 16.6968C136.981 16.9269 137.057 17.1901 137.057 17.4863H136.039C136.039 17.3405 136.008 17.2129 135.946 17.1035C135.887 16.9919 135.796 16.9041 135.673 16.8403C135.552 16.7765 135.399 16.7446 135.215 16.7446C135.037 16.7446 134.889 16.772 134.771 16.8267C134.652 16.8791 134.563 16.9508 134.504 17.042C134.445 17.1309 134.415 17.2311 134.415 17.3428C134.415 17.4271 134.436 17.5034 134.477 17.5718C134.52 17.6401 134.584 17.7039 134.668 17.7632C134.752 17.8224 134.856 17.8783 134.979 17.9307C135.102 17.9831 135.244 18.0343 135.406 18.0845C135.677 18.1665 135.916 18.2588 136.121 18.3613C136.328 18.4639 136.501 18.5789 136.64 18.7065C136.779 18.8341 136.884 18.9788 136.955 19.1406C137.025 19.3024 137.061 19.4858 137.061 19.6909C137.061 19.9074 137.018 20.1011 136.934 20.272C136.85 20.4429 136.728 20.5876 136.568 20.7061C136.409 20.8245 136.219 20.9146 135.998 20.9761C135.777 21.0376 135.529 21.0684 135.256 21.0684C135.01 21.0684 134.767 21.0365 134.528 20.9727C134.289 20.9066 134.071 20.8075 133.875 20.6753C133.681 20.5431 133.526 20.3745 133.41 20.1694C133.294 19.9644 133.236 19.7217 133.236 19.4414H134.265C134.265 19.5964 134.289 19.7274 134.336 19.8345C134.384 19.9416 134.451 20.0282 134.538 20.0942C134.627 20.1603 134.732 20.2082 134.853 20.2378C134.976 20.2674 135.11 20.2822 135.256 20.2822C135.434 20.2822 135.579 20.2572 135.693 20.207C135.81 20.1569 135.895 20.0874 135.95 19.9985C136.007 19.9097 136.035 19.8094 136.035 19.6978ZM141.453 16.0234V21H140.431V16.0234H141.453ZM142.984 16.0234V16.8267H138.924V16.0234H142.984ZM147.787 16.0234H148.809V19.3115C148.809 19.6943 148.727 20.0168 148.563 20.2788C148.401 20.5409 148.176 20.738 147.889 20.8701C147.604 21.0023 147.276 21.0684 146.905 21.0684C146.533 21.0684 146.203 21.0023 145.914 20.8701C145.627 20.738 145.401 20.5409 145.237 20.2788C145.075 20.0168 144.994 19.6943 144.994 19.3115V16.0234H146.02V19.3115C146.02 19.5348 146.055 19.7171 146.126 19.8584C146.196 19.9997 146.298 20.1034 146.43 20.1694C146.564 20.2355 146.723 20.2686 146.905 20.2686C147.092 20.2686 147.25 20.2355 147.38 20.1694C147.512 20.1034 147.612 19.9997 147.681 19.8584C147.751 19.7171 147.787 19.5348 147.787 19.3115V16.0234ZM152.651 21H151.567L151.574 20.2002H152.651C152.92 20.2002 153.146 20.1398 153.331 20.019C153.515 19.896 153.654 19.7171 153.748 19.4824C153.844 19.2477 153.891 18.964 153.891 18.6313V18.3887C153.891 18.1335 153.864 17.909 153.809 17.7153C153.757 17.5216 153.678 17.3587 153.574 17.2266C153.469 17.0944 153.34 16.9953 153.187 16.9292C153.035 16.8608 152.859 16.8267 152.661 16.8267H151.547V16.0234H152.661C152.994 16.0234 153.298 16.0804 153.574 16.1943C153.852 16.306 154.092 16.4666 154.295 16.6763C154.498 16.8859 154.654 17.1366 154.763 17.4282C154.875 17.7176 154.931 18.04 154.931 18.3955V18.6313C154.931 18.9845 154.875 19.307 154.763 19.5986C154.654 19.8903 154.498 20.141 154.295 20.3506C154.094 20.5579 153.854 20.7186 153.574 20.8325C153.296 20.9442 152.988 21 152.651 21ZM152.148 16.0234V21H151.123V16.0234H152.148ZM158.236 16.0234V21H157.214V16.0234H158.236ZM164.754 18.3955V18.6313C164.754 19.0096 164.703 19.3491 164.6 19.6499C164.498 19.9507 164.353 20.207 164.166 20.4189C163.98 20.6286 163.756 20.7892 163.496 20.9009C163.239 21.0125 162.953 21.0684 162.639 21.0684C162.326 21.0684 162.04 21.0125 161.781 20.9009C161.523 20.7892 161.3 20.6286 161.111 20.4189C160.922 20.207 160.775 19.9507 160.67 19.6499C160.567 19.3491 160.516 19.0096 160.516 18.6313V18.3955C160.516 18.015 160.567 17.6755 160.67 17.377C160.772 17.0762 160.917 16.8198 161.104 16.6079C161.293 16.396 161.516 16.2342 161.774 16.1226C162.034 16.0109 162.32 15.9551 162.632 15.9551C162.946 15.9551 163.232 16.0109 163.49 16.1226C163.749 16.2342 163.973 16.396 164.16 16.6079C164.349 16.8198 164.495 17.0762 164.597 17.377C164.702 17.6755 164.754 18.015 164.754 18.3955ZM163.719 18.6313V18.3887C163.719 18.1243 163.695 17.8919 163.647 17.6914C163.599 17.4909 163.528 17.3223 163.435 17.1855C163.342 17.0488 163.228 16.9463 163.093 16.8779C162.959 16.8073 162.805 16.772 162.632 16.772C162.459 16.772 162.305 16.8073 162.17 16.8779C162.038 16.9463 161.925 17.0488 161.832 17.1855C161.741 17.3223 161.671 17.4909 161.623 17.6914C161.576 17.8919 161.552 18.1243 161.552 18.3887V18.6313C161.552 18.8934 161.576 19.1258 161.623 19.3286C161.671 19.5291 161.742 19.6989 161.835 19.8379C161.929 19.9746 162.043 20.0783 162.177 20.1489C162.312 20.2196 162.465 20.2549 162.639 20.2549C162.812 20.2549 162.966 20.2196 163.1 20.1489C163.234 20.0783 163.347 19.9746 163.438 19.8379C163.53 19.6989 163.599 19.5291 163.647 19.3286C163.695 19.1258 163.719 18.8934 163.719 18.6313Z" fill="white"/>
</g>
</g>
</g>
</g>
</svg>
