<svg width="23" height="30" viewBox="0 0 23 30" fill="none" xmlns="http://www.w3.org/2000/svg">
<path d="M19.5403 17.6785C21.11 16.6084 21.8949 16.0733 22.0375 15.3495C22.0827 15.1198 22.0827 14.8835 22.0375 14.6538C21.895 13.93 21.1102 13.3949 19.5406 12.3246L5.06535 2.45403C3.10518 1.1174 2.12509 0.449086 1.32121 0.670907C1.06929 0.740422 0.835522 0.863959 0.636161 1.03293C1.29705e-06 1.57213 1.24476e-06 2.75839 1.14019e-06 5.13091L2.7019e-07 24.8698C1.65631e-07 27.2421 1.13352e-07 28.4282 0.636104 28.9674C0.835448 29.1364 1.0692 29.26 1.3211 29.3295C2.12493 29.5513 3.10498 28.8832 5.06508 27.5469L19.5403 17.6785Z" fill="white"/>
</svg>
