<svg width="196" height="54" viewBox="0 0 196 54" fill="none" xmlns="http://www.w3.org/2000/svg">
<mask id="mask0_249_458" style="mask-type:luminance" maskUnits="userSpaceOnUse" x="1" y="2" width="194" height="50">
<path d="M195 2H1V52H195V2Z" fill="white"/>
</mask>
<g mask="url(#mask0_249_458)">
<mask id="mask1_249_458" style="mask-type:luminance" maskUnits="userSpaceOnUse" x="2" y="2" width="192" height="50">
<path d="M194 2H2V52H194V2Z" fill="white"/>
</mask>
<g mask="url(#mask1_249_458)">
<mask id="mask2_249_458" style="mask-type:luminance" maskUnits="userSpaceOnUse" x="2" y="2" width="192" height="50">
<path d="M194 2H2V52H194V2Z" fill="white"/>
</mask>
<g mask="url(#mask2_249_458)">
<path fill-rule="evenodd" clip-rule="evenodd" d="M2.18519 30.2598C2 30.2598 2 30.2598 2 30.2598C5.92481 58.1696 47.682 57.8951 52 30.2598C51.8148 30.2598 51.8148 30.2598 51.8148 30.2598C49.963 30.2598 48.2963 30.445 46.4444 30.8154C41.9178 50.9794 11.8441 51.1469 7.74074 30.6302C5.88889 30.445 4.03704 30.2598 2.18519 30.2598Z" fill="white"/>
<path fill-rule="evenodd" clip-rule="evenodd" d="M2 23.0399H2.18519C4.03704 23.0399 5.7037 22.8547 7.55556 22.4843C12.0437 2.49183 41.9069 2.06499 46.0741 22.4843C47.7407 22.8547 49.5926 23.0399 51.4444 23.0399H51.6296C48.1194 -5.04206 5.90498 -4.72889 2 23.0399Z" fill="white"/>
<path fill-rule="evenodd" clip-rule="evenodd" d="M47.5564 26.5565C39.4083 25.4454 32.0009 21.1862 27.0009 14.5195C22.0009 21.1862 14.5935 25.4454 6.44531 26.5565C14.5935 27.6677 22.1861 32.1121 27.0009 38.7788C32.0009 32.1121 39.4083 27.6677 47.5564 26.5565Z" fill="white"/>
<mask id="mask3_249_458" style="mask-type:luminance" maskUnits="userSpaceOnUse" x="67" y="2" width="127" height="50">
<path d="M194 2H67V52H194V2Z" fill="white"/>
</mask>
<g mask="url(#mask3_249_458)">
<path d="M72.2609 38.4986V17.5588H77.2109V38.4986H72.2609ZM67.4609 17.5588H82.0109V21.6087H67.4609V17.5588ZM67.4609 34.4487H82.0109V38.4986H67.4609V34.4487ZM94.5026 38.8587C92.7426 38.8587 91.2226 38.5088 89.9426 37.8088C88.6826 37.1088 87.7126 36.1088 87.0326 34.8088C86.3726 33.5088 86.0426 31.9588 86.0426 30.1588C86.0426 28.3188 86.3926 26.7487 87.0926 25.4487C87.8126 24.1487 88.8126 23.1588 90.0926 22.4788C91.3726 21.7988 92.8826 21.4587 94.6226 21.4587C96.1426 21.4587 97.4826 21.7287 98.6426 22.2687C99.8226 22.8087 100.753 23.5687 101.433 24.5487C102.133 25.5087 102.513 26.6588 102.573 27.9988H97.8926C97.7326 27.0788 97.3726 26.3987 96.8126 25.9587C96.2726 25.4987 95.5426 25.2687 94.6226 25.2687C93.8626 25.2687 93.1826 25.4588 92.5826 25.8388C92.0026 26.2188 91.5426 26.7688 91.2026 27.4888C90.8826 28.2088 90.7226 29.0988 90.7226 30.1588C90.7226 31.7388 91.0826 32.9588 91.8026 33.8188C92.5426 34.6788 93.4426 35.1087 94.5026 35.1087C95.1226 35.1087 95.6626 34.9988 96.1226 34.7788C96.6026 34.5588 97.0026 34.2488 97.3226 33.8488C97.6426 33.4288 97.8626 32.9587 97.9826 32.4387H102.663C102.543 33.7387 102.123 34.8688 101.403 35.8288C100.683 36.7888 99.7326 37.5388 98.5526 38.0788C97.3726 38.5988 96.0226 38.8587 94.5026 38.8587ZM113.774 38.8587C111.994 38.8587 110.464 38.5088 109.184 37.8088C107.904 37.1088 106.914 36.1088 106.214 34.8088C105.534 33.5088 105.194 31.9588 105.194 30.1588C105.194 28.3388 105.534 26.7888 106.214 25.5088C106.914 24.2088 107.904 23.2088 109.184 22.5088C110.464 21.8088 111.994 21.4587 113.774 21.4587C116.454 21.4587 118.544 22.2287 120.044 23.7687C121.564 25.3087 122.324 27.4388 122.324 30.1588C122.324 31.9588 121.984 33.5088 121.304 34.8088C120.624 36.1088 119.644 37.1088 118.364 37.8088C117.084 38.5088 115.554 38.8587 113.774 38.8587ZM113.774 35.0788C114.974 35.0788 115.914 34.6388 116.594 33.7588C117.294 32.8788 117.644 31.6788 117.644 30.1588C117.644 28.6188 117.294 27.4188 116.594 26.5588C115.914 25.6788 114.974 25.2388 113.774 25.2388C112.554 25.2388 111.594 25.6788 110.894 26.5588C110.214 27.4188 109.874 28.6188 109.874 30.1588C109.874 31.6788 110.214 32.8788 110.894 33.7588C111.594 34.6388 112.554 35.0788 113.774 35.0788ZM136.556 38.4986V28.2087C136.556 27.3487 136.336 26.6588 135.896 26.1388C135.456 25.6188 134.876 25.3587 134.156 25.3587C133.336 25.3587 132.576 25.6387 131.876 26.1987C131.196 26.7387 130.476 27.6787 129.716 29.0187L129.056 25.0588C129.816 23.7588 130.736 22.8387 131.816 22.2987C132.896 21.7387 133.996 21.4587 135.116 21.4587C136.396 21.4587 137.486 21.7287 138.386 22.2687C139.306 22.8087 140.006 23.5587 140.486 24.5187C140.986 25.4787 141.236 26.6088 141.236 27.9088V38.4986H136.556ZM125.426 38.4986V21.8188H129.956L130.106 24.7887V38.4986H125.426ZM150.458 38.4986V21.8188H155.138V38.4986H150.458ZM145.058 38.4986V34.7188H160.598V38.4986H145.058ZM147.158 25.5988V21.8188H152.798V25.5988H147.158ZM150.278 19.5988V15.2188H155.258V19.5988H150.278ZM172.55 38.8587C170.79 38.8587 169.27 38.5088 167.99 37.8088C166.73 37.1088 165.76 36.1088 165.08 34.8088C164.42 33.5088 164.09 31.9588 164.09 30.1588C164.09 28.3188 164.44 26.7487 165.14 25.4487C165.86 24.1487 166.86 23.1588 168.14 22.4788C169.42 21.7988 170.93 21.4587 172.67 21.4587C174.19 21.4587 175.53 21.7287 176.69 22.2687C177.87 22.8087 178.8 23.5687 179.48 24.5487C180.18 25.5087 180.56 26.6588 180.62 27.9988H175.94C175.78 27.0788 175.42 26.3987 174.86 25.9587C174.32 25.4987 173.59 25.2687 172.67 25.2687C171.91 25.2687 171.23 25.4588 170.63 25.8388C170.05 26.2188 169.59 26.7688 169.25 27.4888C168.93 28.2088 168.77 29.0988 168.77 30.1588C168.77 31.7388 169.13 32.9588 169.85 33.8188C170.59 34.6788 171.49 35.1087 172.55 35.1087C173.17 35.1087 173.71 34.9988 174.17 34.7788C174.65 34.5588 175.05 34.2488 175.37 33.8488C175.69 33.4288 175.91 32.9587 176.03 32.4387H180.71C180.59 33.7387 180.17 34.8688 179.45 35.8288C178.73 36.7888 177.78 37.5388 176.6 38.0788C175.42 38.5988 174.07 38.8587 172.55 38.8587Z" fill="white"/>
</g>
</g>
</g>
</g>
</svg>
