<svg width="60" height="60" viewBox="0 0 60 60" fill="none" xmlns="http://www.w3.org/2000/svg">
<g opacity="0.9">
<path d="M14.9118 30.0004C23.1474 30.0004 29.8237 23.3242 29.8237 15.0886C29.8237 6.85301 23.1474 0.176758 14.9118 0.176758C6.67625 0.176758 0 6.85301 0 15.0886C0 23.3242 6.67625 30.0004 14.9118 30.0004Z" fill="white" fill-opacity="0.3"/>
<path d="M44.7361 30.0004C52.9716 30.0004 59.6479 23.3242 59.6479 15.0886C59.6479 6.85301 52.9716 0.176758 44.7361 0.176758C36.5005 0.176758 29.8242 6.85301 29.8242 15.0886C29.8242 23.3242 36.5005 30.0004 44.7361 30.0004Z" fill="white" fill-opacity="0.3"/>
<path d="M14.9118 59.8227C23.1474 59.8227 29.8237 53.1464 29.8237 44.9109C29.8237 36.6753 23.1474 29.999 14.9118 29.999C6.67625 29.999 0 36.6753 0 44.9109C0 53.1464 6.67625 59.8227 14.9118 59.8227Z" fill="white" fill-opacity="0.3"/>
<path d="M44.7361 59.8227C52.9716 59.8227 59.6479 53.1464 59.6479 44.9109C59.6479 36.6753 52.9716 29.999 44.7361 29.999C36.5005 29.999 29.8242 36.6753 29.8242 44.9109C29.8242 53.1464 36.5005 59.8227 44.7361 59.8227Z" fill="white" fill-opacity="0.3"/>
</g>
</svg>
