<svg width="60" height="60" viewBox="0 0 60 60" fill="none" xmlns="http://www.w3.org/2000/svg">
<g opacity="0.9">
<path d="M59.9543 59.9756H45.8563V57.2441C45.8563 48.2636 45.68 39.2691 45.8986 30.3098C46.0889 22.5558 39.9668 15.3447 32.5583 14.3614C24.2052 13.2547 16.7297 18.0868 14.5586 26.1614C14.0511 28.0541 14.0158 30.1089 14.0053 32.0932C13.963 41.0701 14.0053 50.0471 14.0053 59.024C14.0053 59.3059 13.963 59.5914 13.9277 59.9756H0.153919C0.11515 59.5033 0.0587575 59.1086 0.0587575 58.7138C0.0587575 48.9721 -0.128042 39.2268 0.164493 29.4921C0.534567 17.0012 6.79763 8.01371 17.9562 2.75514C29.3087 -2.60212 42.5327 0.129375 51.3263 9.14155C56.525 14.4671 59.4926 20.8711 59.8592 28.3079C60.1024 33.2245 59.9473 38.1765 59.9543 43.0932C59.9614 48.6549 59.9543 54.213 59.9543 59.9756Z" fill="white" fill-opacity="0.3"/>
<path d="M41.4562 59.9679H18.2578C18.2578 58.9493 18.2578 58.04 18.2578 57.1272C18.2895 48.0339 18.2226 38.9407 18.3988 29.8509C18.4975 24.7721 22.2194 20.4475 27.1184 19.147C34.1675 17.272 41.4703 22.5094 41.5689 29.7593C41.7099 39.6702 41.6218 49.5847 41.6253 59.4991C41.5876 59.6615 41.5308 59.8189 41.4562 59.9679Z" fill="white" fill-opacity="0.3"/>
</g>
</svg>
