<svg width="61" height="60" viewBox="0 0 61 60" fill="none" xmlns="http://www.w3.org/2000/svg">
<g opacity="0.3">
<path d="M60.0629 30.1503C59.6644 47.7857 45.6865 59.9894 29.6277 60C13.6853 60 -0.052754 46.2197 0.000152306 30.0832C0.0424773 13.5059 13.7558 -0.454256 30.4107 0.0113196C47.5135 0.49453 59.5585 13.3825 60.0629 30.1503ZM1.8025 29.8893C2.15521 30.3301 2.24338 30.5065 2.38094 30.577C2.68964 30.7413 3.01324 30.876 3.34737 30.9791C16.3976 34.9718 24.9226 43.5215 29.0351 56.5117C29.2846 57.0887 29.5931 57.6383 29.9557 58.1518L30.4636 58.2435C34.4915 43.8036 43.6161 34.4357 58.1689 30.2596C51.7178 27.1593 45.2245 24.7009 40.2513 19.6572C35.2781 14.6134 32.668 8.33523 30.0016 1.85245C27.2681 8.25411 24.8203 14.684 19.8294 19.6219C14.8386 24.5598 8.46517 27.3356 1.8025 29.8893Z" fill="white"/>
<path d="M29.5994 43.8924C27.73 36.683 23.0355 32.253 15.8438 30.1015C23.0355 27.8195 27.6877 23.2907 29.5747 16.1201C31.4652 19.1111 32.869 22.3736 35.1933 24.7262C37.5177 27.0788 40.7168 28.4367 43.2845 30.0803C40.7379 31.671 37.5001 33.036 35.1722 35.3286C32.8443 37.6212 31.571 40.785 29.5994 43.8924Z" fill="white"/>
</g>
</svg>
