<svg width="60" height="60" viewBox="0 0 60 60" fill="none" xmlns="http://www.w3.org/2000/svg">
<g opacity="0.9">
<path d="M38.7856 21.217C44.4137 26.8402 52.0438 29.9991 59.9997 29.9997V0H30C29.9996 7.95745 33.1598 15.5892 38.7856 21.217Z" fill="white" fill-opacity="0.3"/>
<path d="M38.7875 38.7856C33.1624 44.4119 30.0016 52.0417 30 59.9977H59.9997V30C52.0441 30.0019 44.4146 33.1618 38.7875 38.7856Z" fill="white" fill-opacity="0.3"/>
<path d="M21.2151 38.7875C15.589 33.1626 7.95957 30.0019 0.00390625 30V60.0006H30.0045C30.0019 52.0442 26.8405 44.4142 21.2151 38.7875Z" fill="white" fill-opacity="0.3"/>
<path d="M21.2121 21.217C26.8375 15.5908 29.9986 7.961 30.0006 0.00488281H0V30.0045C7.95604 30.0031 15.5859 26.8423 21.2121 21.217Z" fill="white" fill-opacity="0.3"/>
</g>
</svg>
