<svg width="60" height="60" viewBox="0 0 60 60" fill="none" xmlns="http://www.w3.org/2000/svg">
<path d="M19.5164 59.7843V36.0717L19.238 36.0195C18.65 38.302 18.1628 40.6159 17.4565 42.8601C15.4732 49.1719 12.2686 54.6486 6.16214 57.8218C4.31454 58.7822 2.20251 59.238 0 60V0C12.874 3.07933 17.0494 12.7244 19.4502 23.984C19.4502 20.0035 19.4502 16.023 19.4502 12.0424C19.4502 8.06194 19.5164 4.13013 19.5164 0C32.6409 3.02018 36.6423 12.874 38.9248 24.0849L39.325 23.9005V0.156576C46.3292 1.28392 51.2665 5.02784 54.245 10.9777C60.682 23.8518 60.6889 36.865 53.8587 49.5999C51.3013 54.3702 47.3243 57.8462 41.8928 59.2763C41.0752 59.492 40.2227 59.572 39.1475 59.7564V35.0939C38.1663 40.174 36.9241 45.1113 34.2589 49.5616C31.4266 54.2867 27.6479 57.8845 22.126 59.3041C21.357 59.499 20.5602 59.5964 19.5164 59.7843Z" fill="white" fill-opacity="0.3"/>
</svg>
