<svg width="42" height="42" viewBox="0 0 42 42" fill="none" xmlns="http://www.w3.org/2000/svg">
<path fill-rule="evenodd" clip-rule="evenodd" d="M21 41.3125C32.2183 41.3125 41.3125 32.2183 41.3125 21C41.3125 9.78171 32.2183 0.6875 21 0.6875C9.78171 0.6875 0.6875 9.78171 0.6875 21C0.6875 32.2183 9.78171 41.3125 21 41.3125ZM28.3548 17.9381C28.965 17.3279 28.965 16.3387 28.3548 15.7285C27.7446 15.1183 26.7554 15.1183 26.1452 15.7285L18.9167 22.9569L15.8549 19.8952C15.2447 19.285 14.2553 19.285 13.6451 19.8952C13.035 20.5054 13.035 21.4946 13.6451 22.1048L17.8119 26.2715C18.4221 26.8817 19.4112 26.8817 20.0215 26.2715L28.3548 17.9381Z" fill="#20925A"/>
</svg>
