<svg width="15" height="15" viewBox="0 0 15 15" fill="none" xmlns="http://www.w3.org/2000/svg">
<path d="M5 10.625L7.5 13.125L10 10.625" stroke="white" stroke-linecap="round" stroke-linejoin="round"/>
<path d="M7.5 7.5V13.125" stroke="white" stroke-linecap="round" stroke-linejoin="round"/>
<path d="M13.0497 11.3062C13.5931 10.9241 14.0006 10.3788 14.213 9.74942C14.4255 9.12005 14.4319 8.43934 14.2312 7.8061C14.0306 7.17285 13.6334 6.62001 13.0973 6.22781C12.5612 5.8356 11.914 5.62444 11.2497 5.62496H10.4622C10.2743 4.89238 9.92255 4.21199 9.43357 3.63501C8.94459 3.05803 8.33109 2.5995 7.63925 2.29393C6.94741 1.98836 6.19527 1.84373 5.43945 1.87091C4.68362 1.89809 3.94381 2.09638 3.27571 2.45085C2.60762 2.80532 2.02863 3.30674 1.58236 3.91735C1.13609 4.52796 0.834152 5.23186 0.699283 5.97605C0.564413 6.72024 0.600126 7.48533 0.803732 8.21372C1.00734 8.94211 1.37353 9.61482 1.87474 10.1812" stroke="white" stroke-linecap="round" stroke-linejoin="round"/>
</svg>
