<svg width="1732" height="689" viewBox="0 0 1732 689" fill="none" xmlns="http://www.w3.org/2000/svg">
<g clip-path="url(#clip0_46_8)">
<path d="M1586.92 11.9988V9.19385H1596.36V11.9988H1592.83V25.2842H1590.43V11.9988H1586.92ZM1597.92 9.19385H1600.91L1604.08 20.0045H1604.2L1607.38 9.19543H1610.37V25.2842H1608.02V14.8117H1607.92L1604.95 25.2052H1603.33L1600.37 14.7722H1600.26V25.2842H1597.92V9.19385Z" fill="white"/>
<path d="M17.4063 231V48.9H12.9063L15.9063 21H62.7063L77.1063 134.1L91.8063 21H137.706V231H109.206V67.8L87.0062 201H67.5063L45.9063 71.4V231H17.4063ZM181.558 231C172.358 231 164.958 228.4 159.358 223.2C153.958 217.8 151.258 211.1 151.258 203.1V108.9C151.258 100.7 153.958 94 159.358 88.8C164.958 83.6 172.358 81 181.558 81H182.758C188.158 81 192.958 82.3 197.158 84.9V81H225.658V203.1H229.858L232.858 231H197.158V219.3L189.658 231H181.558ZM181.258 108.9C180.258 108.9 179.758 109.4 179.758 110.4V201.6C179.758 202.6 180.258 203.1 181.258 203.1H197.158V108.9H181.258ZM244.52 231V108.9H237.32L240.32 81H273.02V92.7L280.52 81H288.62C297.82 81 305.12 83.6 310.52 88.8C316.12 94 318.92 100.7 318.92 108.9V203.1H326.42L323.42 231H290.42V110.4C290.42 109.4 289.92 108.9 288.92 108.9H273.02V231H244.52ZM364.37 231C355.17 231 347.77 228.4 342.17 223.2C336.77 217.8 334.07 211.1 334.07 203.1V108.9C334.07 100.7 336.77 94 342.17 88.8C347.77 83.6 355.17 81 364.37 81H365.57C370.97 81 375.77 82.3 379.97 84.9V81H408.47V203.1H412.67L415.67 231H379.97V219.3L372.47 231H364.37ZM364.07 108.9C363.07 108.9 362.57 109.4 362.57 110.4V201.6C362.57 202.6 363.07 203.1 364.07 203.1H379.97V108.9H364.07ZM450.098 237V243.6C450.098 244.6 450.598 245.1 451.598 245.1H465.998C466.998 245.1 467.498 244.6 467.498 243.6V219.3L459.998 231H451.898C442.698 231 435.298 228.4 429.698 223.2C424.298 217.8 421.598 211.1 421.598 203.1V108.9C421.598 100.7 424.298 94 429.698 88.8C435.298 83.6 442.698 81 451.898 81H453.098C458.498 81 463.298 82.3 467.498 84.9V81H495.998V243C495.998 251.4 493.398 258.1 488.198 263.1C482.998 268.3 476.198 270.9 467.798 270.9H449.798C441.398 270.9 434.598 268.3 429.398 263.1C424.198 258.1 421.598 251.4 421.598 243V237H450.098ZM451.598 108.9C450.598 108.9 450.098 109.4 450.098 110.4V201.6C450.098 202.6 450.598 203.1 451.598 203.1H467.498V108.9H451.598ZM533.336 41.1L536.336 69H507.836V41.1H533.336ZM536.336 81V231H507.836V108.9H503.336L506.336 81H536.336ZM552.43 231V108.9H545.23L548.23 81H580.93V92.7L588.43 81H596.53C605.73 81 613.03 83.6 618.43 88.8C624.03 94 626.83 100.7 626.83 108.9V203.1H634.33L631.33 231H598.33V110.4C598.33 109.4 597.83 108.9 596.83 108.9H580.93V231H552.43ZM670.41 237V243.6C670.41 244.6 670.91 245.1 671.91 245.1H686.31C687.31 245.1 687.81 244.6 687.81 243.6V219.3L680.31 231H672.21C663.01 231 655.61 228.4 650.01 223.2C644.61 217.8 641.91 211.1 641.91 203.1V108.9C641.91 100.7 644.61 94 650.01 88.8C655.61 83.6 663.01 81 672.21 81H673.41C678.81 81 683.61 82.3 687.81 84.9V81H716.31V243C716.31 251.4 713.71 258.1 708.51 263.1C703.31 268.3 696.51 270.9 688.11 270.9H670.11C661.71 270.9 654.91 268.3 649.71 263.1C644.51 258.1 641.91 251.4 641.91 243V237H670.41ZM671.91 108.9C670.91 108.9 670.41 109.4 670.41 110.4V201.6C670.41 202.6 670.91 203.1 671.91 203.1H687.81V108.9H671.91ZM804.59 231H776.09L792.29 48.9H786.89L789.89 21H844.79L863.39 231H834.89L831.59 195H807.89L804.59 231ZM810.29 167.1H829.19L819.89 62.7L810.29 167.1ZM870.789 204.3V107.7C870.789 99.3 873.389 92.6 878.589 87.6C883.789 82.4 890.589 79.8 898.989 79.8H920.589C928.989 79.8 935.789 82.4 940.989 87.6C946.189 92.6 948.789 99.3 948.789 107.7V147.3L920.289 144.3V109.2C920.289 108.2 919.789 107.7 918.789 107.7H900.789C899.789 107.7 899.289 108.2 899.289 109.2V202.8C899.289 203.8 899.789 204.3 900.789 204.3H918.789C919.789 204.3 920.289 203.9 920.289 203.1V168.3H948.789V204.3C948.789 212.7 946.189 219.5 940.989 224.7C935.789 229.7 928.989 232.2 920.589 232.2H898.989C890.589 232.2 883.789 229.7 878.589 224.7C873.389 219.5 870.789 212.7 870.789 204.3ZM960.73 204.3V107.7C960.73 99.3 963.33 92.6 968.53 87.6C973.73 82.4 980.53 79.8 988.93 79.8H1010.53C1018.93 79.8 1025.73 82.4 1030.93 87.6C1036.13 92.6 1038.73 99.3 1038.73 107.7V147.3L1010.23 144.3V109.2C1010.23 108.2 1009.73 107.7 1008.73 107.7H990.73C989.73 107.7 989.23 108.2 989.23 109.2V202.8C989.23 203.8 989.73 204.3 990.73 204.3H1008.73C1009.73 204.3 1010.23 203.9 1010.23 203.1V168.3H1038.73V204.3C1038.73 212.7 1036.13 219.5 1030.93 224.7C1025.73 229.7 1018.93 232.2 1010.53 232.2H988.93C980.53 232.2 973.73 229.7 968.53 224.7C963.33 219.5 960.73 212.7 960.73 204.3ZM1100.17 109.2C1100.17 108.2 1099.67 107.7 1098.67 107.7H1080.67C1079.67 107.7 1079.17 108.2 1079.17 109.2V202.8C1079.17 203.8 1079.67 204.3 1080.67 204.3H1098.67C1099.67 204.3 1100.17 203.9 1100.17 203.1V109.2ZM1050.67 204.3V107.7C1050.67 99.3 1053.27 92.6 1058.47 87.6C1063.67 82.4 1070.47 79.8 1078.87 79.8H1100.47C1108.87 79.8 1115.67 82.4 1120.87 87.6C1126.07 92.6 1128.67 99.3 1128.67 107.7V204.3C1128.67 212.7 1126.07 219.5 1120.87 224.7C1115.67 229.7 1108.87 232.2 1100.47 232.2H1078.87C1070.47 232.2 1063.67 229.7 1058.47 224.7C1053.27 219.5 1050.67 212.7 1050.67 204.3ZM1189.25 203.1V81H1217.75V203.1H1222.25L1225.25 231H1189.25V219.3L1181.75 231H1173.65C1164.45 231 1157.05 228.4 1151.45 223.2C1146.05 217.8 1143.35 211.1 1143.35 203.1V108.9H1136.15L1139.15 81H1171.85V201.6C1171.85 202.6 1172.35 203.1 1173.35 203.1H1189.25ZM1235.34 231V108.9H1228.14L1231.14 81H1263.84V92.7L1271.34 81H1279.44C1288.64 81 1295.94 83.6 1301.34 88.8C1306.94 94 1309.74 100.7 1309.74 108.9V203.1H1317.24L1314.24 231H1281.24V110.4C1281.24 109.4 1280.74 108.9 1279.74 108.9H1263.84V231H1235.34ZM1375.7 203.1V231H1358.3C1349.9 231 1343.1 228.5 1337.9 223.5C1332.7 218.3 1330.1 211.5 1330.1 203.1V108.9H1317.5L1319.9 81H1330.1V48.9H1322.6L1325 21H1358.6V81H1375.7L1373.3 108.9H1358.6V203.1H1375.7ZM1384.66 183.9L1413.16 186.9V201.6C1413.16 202.6 1413.66 203.1 1414.66 203.1H1426.66C1427.66 203.1 1428.16 202.6 1428.16 201.6V173.7L1401.46 162.3C1398.26 160.9 1394.66 158.7 1390.66 155.7C1386.66 152.7 1384.66 147.8 1384.66 141V107.7C1384.66 99.3 1387.26 92.6 1392.46 87.6C1397.66 82.4 1404.46 79.8 1412.86 79.8H1428.46C1436.86 79.8 1443.66 82.4 1448.86 87.6C1454.06 92.6 1456.66 99.3 1456.66 107.7V126.9L1428.16 123.9V109.2C1428.16 108.2 1427.66 107.7 1426.66 107.7H1414.66C1413.66 107.7 1413.16 108.2 1413.16 109.2V137.1L1439.86 148.5C1443.06 149.9 1446.66 152.1 1450.66 155.1C1454.66 158.1 1456.66 163 1456.66 169.8V203.1C1456.66 211.5 1454.06 218.3 1448.86 223.5C1443.66 228.5 1436.86 231 1428.46 231H1412.86C1404.46 231 1397.66 228.5 1392.46 223.5C1387.26 218.3 1384.66 211.5 1384.66 203.1V183.9ZM1600.94 135.3L1591.04 187.8L1612.04 231H1584.14C1582.74 228.4 1581.34 225.6 1579.94 222.6C1574.54 228.2 1567.54 231 1558.94 231H1550.84C1542.64 231 1535.84 228.4 1530.44 223.2C1525.24 217.8 1522.64 211.1 1522.64 203.1V153C1522.44 148 1523.34 143.5 1525.34 139.5C1527.54 135.3 1530.54 132 1534.34 129.6C1532.34 125.4 1530.34 121.3 1528.34 117.3C1526.34 113.3 1525.34 109 1525.34 104.4V78.9C1525.34 71.5 1527.54 65 1531.94 59.4C1536.54 53.8 1542.54 51 1549.94 51H1564.94C1573.14 51 1579.84 53.6 1585.04 58.8C1590.24 64 1592.94 70.7 1593.14 78.9V122.1H1565.24V80.4C1565.24 79.4 1564.74 78.9 1563.74 78.9H1554.74C1553.74 78.9 1553.24 79.4 1553.24 80.4V110.7L1571.84 148.5L1574.24 135.3H1600.94ZM1552.04 203.1H1560.14C1561.14 203.1 1561.74 202.6 1561.94 201.6L1564.04 190.2C1561.84 185.4 1559.54 180.7 1557.14 176.1C1554.94 171.5 1552.74 166.9 1550.54 162.3V201.6C1550.54 202.6 1551.04 203.1 1552.04 203.1ZM15.9063 508.3V411.7C15.9063 403.3 18.5063 396.6 23.7063 391.6C28.9063 386.4 35.7063 383.8 44.1063 383.8H62.7063C71.1063 383.8 77.9063 386.4 83.1063 391.6C88.3063 396.6 90.9063 403.3 90.9063 411.7V448.6H62.4063V413.2C62.4063 412.2 61.9063 411.7 60.9063 411.7H45.9063C44.9063 411.7 44.4063 412.2 44.4063 413.2V448.6H90.9063V476.5H44.4063V506.8C44.4063 507.8 44.9063 508.3 45.9063 508.3H60.9063C61.9063 508.3 62.4063 507.9 62.4063 507.1V490.6H90.9063V508.3C90.9063 516.7 88.3063 523.5 83.1063 528.7C77.9063 533.7 71.1063 536.2 62.7063 536.2H44.1063C35.7063 536.2 28.9063 533.7 23.7063 528.7C18.5063 523.5 15.9063 516.7 15.9063 508.3ZM181.518 535H153.018V414.4C153.018 413.4 152.518 412.9 151.518 412.9H135.618V535H107.118V412.9H99.918L102.918 385H135.618V396.7L143.118 385H151.218C157.818 385 163.518 386.4 168.318 389.2C173.118 392 176.618 395.8 178.818 400.6L189.018 385H197.118C206.318 385 213.618 387.6 219.018 392.8C224.618 398 227.418 404.7 227.418 412.9V507.1H234.618L231.618 535H198.918V414.4C198.918 413.4 198.418 412.9 197.418 412.9H181.518V535ZM274.778 574.9H246.278V412.9H239.078L242.078 385H274.778V396.7L282.278 385H290.378C299.578 385 306.878 387.6 312.278 392.8C317.878 398 320.678 404.7 320.678 412.9V507.1C320.678 515.1 317.878 521.8 312.278 527.2C306.878 532.4 299.578 535 290.378 535H289.178C283.778 535 278.978 533.7 274.778 531.1V574.9ZM290.678 412.9H274.778V507.1H290.678C291.678 507.1 292.178 506.6 292.178 505.6V414.4C292.178 413.4 291.678 412.9 290.678 412.9ZM380.641 413.2C380.641 412.2 380.141 411.7 379.141 411.7H361.141C360.141 411.7 359.641 412.2 359.641 413.2V506.8C359.641 507.8 360.141 508.3 361.141 508.3H379.141C380.141 508.3 380.641 507.9 380.641 507.1V413.2ZM331.141 508.3V411.7C331.141 403.3 333.741 396.6 338.941 391.6C344.141 386.4 350.941 383.8 359.341 383.8H380.941C389.341 383.8 396.141 386.4 401.341 391.6C406.541 396.6 409.141 403.3 409.141 411.7V508.3C409.141 516.7 406.541 523.5 401.341 528.7C396.141 533.7 389.341 536.2 380.941 536.2H359.341C350.941 536.2 344.141 533.7 338.941 528.7C333.741 523.5 331.141 516.7 331.141 508.3ZM517.082 535V523.3L509.582 535H501.482C494.882 535 489.182 533.6 484.382 530.8C479.582 528 476.082 524.2 473.882 519.4L463.682 535H455.582C446.382 535 438.982 532.4 433.382 527.2C427.982 521.8 425.282 515.1 425.282 507.1V412.9H418.082L421.082 385H453.782V505.6C453.782 506.6 454.282 507.1 455.282 507.1H471.182V385H499.682V505.6C499.682 506.6 500.182 507.1 501.182 507.1H517.082V385H545.582V507.1H549.782L552.782 535H517.082ZM560.242 508.3V411.7C560.242 403.3 562.842 396.6 568.042 391.6C573.242 386.4 580.042 383.8 588.442 383.8H607.042C615.442 383.8 622.242 386.4 627.442 391.6C632.642 396.6 635.242 403.3 635.242 411.7V448.6H606.742V413.2C606.742 412.2 606.242 411.7 605.242 411.7H590.242C589.242 411.7 588.742 412.2 588.742 413.2V448.6H635.242V476.5H588.742V506.8C588.742 507.8 589.242 508.3 590.242 508.3H605.242C606.242 508.3 606.742 507.9 606.742 507.1V490.6H635.242V508.3C635.242 516.7 632.642 523.5 627.442 528.7C622.242 533.7 615.442 536.2 607.042 536.2H588.442C580.042 536.2 573.242 533.7 568.042 528.7C562.842 523.5 560.242 516.7 560.242 508.3ZM681.419 385V398.2L689.519 385H709.619V414.1H681.419V535H652.919V412.9H645.719L648.719 385H681.419ZM747.203 345.1L750.203 373H721.703V345.1H747.203ZM750.203 385V535H721.703V412.9H717.203L720.203 385H750.203ZM766.298 535V412.9H759.098L762.098 385H794.798V396.7L802.298 385H810.398C819.598 385 826.898 387.6 832.298 392.8C837.898 398 840.698 404.7 840.698 412.9V507.1H848.198L845.198 535H812.198V414.4C812.198 413.4 811.698 412.9 810.698 412.9H794.798V535H766.298ZM884.277 541V547.6C884.277 548.6 884.777 549.1 885.777 549.1H900.177C901.177 549.1 901.677 548.6 901.677 547.6V523.3L894.177 535H886.077C876.877 535 869.477 532.4 863.877 527.2C858.477 521.8 855.777 515.1 855.777 507.1V412.9C855.777 404.7 858.477 398 863.877 392.8C869.477 387.6 876.877 385 886.077 385H887.277C892.677 385 897.477 386.3 901.677 388.9V385H930.177V547C930.177 555.4 927.577 562.1 922.377 567.1C917.177 572.3 910.377 574.9 901.977 574.9H883.977C875.577 574.9 868.777 572.3 863.577 567.1C858.377 562.1 855.777 555.4 855.777 547V541H884.277ZM885.777 412.9C884.777 412.9 884.277 413.4 884.277 414.4V505.6C884.277 506.6 884.777 507.1 885.777 507.1H901.677V412.9H885.777ZM989.957 385H999.557V352.9C999.557 344.5 1002.16 337.8 1007.36 332.8C1012.56 327.6 1019.36 325 1027.76 325H1045.16V352.9H1028.06V385H1042.76L1039.76 412.9H1028.06V535H999.557V412.9H986.957L989.957 385ZM1079.72 345.1L1082.72 373H1054.22V345.1H1079.72ZM1082.72 385V535H1054.22V412.9H1049.72L1052.72 385H1082.72ZM1098.82 535V412.9H1091.62L1094.62 385H1127.32V396.7L1134.82 385H1142.92C1152.12 385 1159.42 387.6 1164.82 392.8C1170.42 398 1173.22 404.7 1173.22 412.9V507.1H1180.72L1177.72 535H1144.72V414.4C1144.72 413.4 1144.22 412.9 1143.22 412.9H1127.32V535H1098.82ZM1218.67 535C1209.47 535 1202.07 532.4 1196.47 527.2C1191.07 521.8 1188.37 515.1 1188.37 507.1V412.9C1188.37 404.7 1191.07 398 1196.47 392.8C1202.07 387.6 1209.47 385 1218.67 385H1219.87C1225.27 385 1230.07 386.3 1234.27 388.9V385H1262.77V507.1H1266.97L1269.97 535H1234.27V523.3L1226.77 535H1218.67ZM1218.37 412.9C1217.37 412.9 1216.87 413.4 1216.87 414.4V505.6C1216.87 506.6 1217.37 507.1 1218.37 507.1H1234.27V412.9H1218.37ZM1281.63 535V412.9H1274.43L1277.43 385H1310.13V396.7L1317.63 385H1325.73C1334.93 385 1342.23 387.6 1347.63 392.8C1353.23 398 1356.03 404.7 1356.03 412.9V507.1H1363.53L1360.53 535H1327.53V414.4C1327.53 413.4 1327.03 412.9 1326.03 412.9H1310.13V535H1281.63ZM1369.71 508.3V411.7C1369.71 403.3 1372.31 396.6 1377.51 391.6C1382.71 386.4 1389.51 383.8 1397.91 383.8H1419.51C1427.91 383.8 1434.71 386.4 1439.91 391.6C1445.11 396.6 1447.71 403.3 1447.71 411.7V451.3L1419.21 448.3V413.2C1419.21 412.2 1418.71 411.7 1417.71 411.7H1399.71C1398.71 411.7 1398.21 412.2 1398.21 413.2V506.8C1398.21 507.8 1398.71 508.3 1399.71 508.3H1417.71C1418.71 508.3 1419.21 507.9 1419.21 507.1V472.3H1447.71V508.3C1447.71 516.7 1445.11 523.5 1439.91 528.7C1434.71 533.7 1427.91 536.2 1419.51 536.2H1397.91C1389.51 536.2 1382.71 533.7 1377.51 528.7C1372.31 523.5 1369.71 516.7 1369.71 508.3ZM1486.66 345.1L1489.66 373H1461.16V345.1H1486.66ZM1489.66 385V535H1461.16V412.9H1456.66L1459.66 385H1489.66ZM1530.39 535C1521.19 535 1513.79 532.4 1508.19 527.2C1502.79 521.8 1500.09 515.1 1500.09 507.1V412.9C1500.09 404.7 1502.79 398 1508.19 392.8C1513.79 387.6 1521.19 385 1530.39 385H1531.59C1536.99 385 1541.79 386.3 1545.99 388.9V385H1574.49V507.1H1578.69L1581.69 535H1545.99V523.3L1538.49 535H1530.39ZM1530.09 412.9C1529.09 412.9 1528.59 413.4 1528.59 414.4V505.6C1528.59 506.6 1529.09 507.1 1530.09 507.1H1545.99V412.9H1530.09ZM1620.65 325L1620.95 507.1H1628.45L1631.45 535H1592.45L1592.15 352.9H1586.15L1589.15 325H1620.65Z" fill="white"/>
</g>
<defs>
<clipPath id="clip0_46_8">
<rect width="1732" height="689" fill="white"/>
</clipPath>
</defs>
</svg>
