<svg width="294" height="37" viewBox="0 0 294 37" fill="none" xmlns="http://www.w3.org/2000/svg">
<g clip-path="url(#clip0_4_2)">
<path d="M0 3.5C0 1.84315 1.34315 0.5 3 0.5H33C34.6569 0.5 36 1.84315 36 3.5V33.5C36 35.1569 34.6569 36.5 33 36.5H3C1.34315 36.5 0 35.1569 0 33.5V3.5Z" fill="#FF0000"/>
<path d="M3 0.5C1.34315 0.5 0 1.84315 0 3.5V14.1126C0.873148 13.5631 1.75119 13.0195 2.63087 12.4936C2.74142 12.4275 2.90492 12.3261 3.1109 12.1984C3.85889 11.7346 5.16699 10.9235 6.53317 10.1937C7.41577 9.72218 8.38045 9.25185 9.31367 8.89612C10.2043 8.55662 11.251 8.24787 12.2392 8.25495C13.0628 8.26086 13.7134 8.63687 14.125 8.98742C14.5497 9.34907 14.9069 9.83677 15.1112 10.3949C15.2497 10.7732 15.2633 11.138 15.2677 11.2809C15.274 11.4832 15.266 11.6912 15.2538 11.8787C15.2293 12.2576 15.1788 12.6855 15.1243 13.0787C15.0182 13.8452 14.8714 14.6601 14.7991 14.9579C14.7336 15.2276 14.66 15.4977 14.5781 15.767C17.6305 14.5621 20.7906 13.4715 24.017 12.6998C24.0735 12.6863 24.1496 12.6664 24.2418 12.6423C24.7193 12.5174 25.6276 12.28 26.4709 12.2343C27.4884 12.1791 29.2488 12.3567 30.2097 14.0594C30.6594 14.8562 30.8609 15.8046 30.9319 16.6097C31.0041 17.4287 30.9621 18.3395 30.7434 19.1322C30.2894 20.7774 29.2443 22.0462 28.2569 22.9974C27.534 23.6939 26.696 24.3478 26.0322 24.8657C25.8152 25.0351 25.6168 25.19 25.4471 25.327C24.4933 26.0972 23.5861 26.7802 22.7096 27.4399C21.9198 28.0344 21.1549 28.6101 20.4037 29.2139C21.0799 29.1782 21.7496 29.1245 22.3073 29.0729C24.3877 28.8805 26.4688 28.6111 28.5873 28.3317L29.015 28.2753C30.9846 28.0152 32.9888 27.7506 35.0013 27.5459C35.3339 27.512 35.6668 27.4798 36 27.449V3.5C36 1.84315 34.6569 0.5 33 0.5H3Z" fill="white"/>
<path d="M36 31.4666C35.8021 31.4856 35.6041 31.5052 35.4061 31.5253C33.4556 31.7237 31.508 31.9809 29.5257 32.2426L29.1102 32.2974C26.9959 32.5762 24.8433 32.8554 22.6758 33.0559C21.4048 33.1735 19.0636 33.3557 17.4344 33.1843C16.9172 33.13 16.3731 32.9977 15.8469 32.7572C15.1245 32.4271 14.3891 31.7127 14.3479 30.6024C14.317 29.7703 14.717 29.1405 14.9034 28.8739C15.2836 28.3303 15.8771 27.824 15.957 27.7558L15.9658 27.7482C17.3866 26.4454 19.0213 25.2099 20.5549 24.0508C21.3956 23.4155 22.2059 22.803 22.9339 22.2151C23.2037 21.9972 23.4661 21.7924 23.7223 21.5924C24.3399 21.1104 24.9213 20.6567 25.4817 20.1167C26.2467 19.3798 26.7096 18.7128 26.8875 18.0682C26.9474 17.851 26.9896 17.44 26.9473 16.9611C26.9192 16.642 26.8625 16.3931 26.8081 16.2253C26.7739 16.2251 26.7339 16.2259 26.6875 16.2284C26.4661 16.2404 26.1985 16.2852 25.8848 16.3565C25.7315 16.3914 25.5796 16.4296 25.4223 16.47L25.3374 16.4919C25.2111 16.5244 25.0721 16.5603 24.9475 16.5901C21.2884 17.4653 17.6544 18.8009 14.06 20.2931C12.2885 21.0285 12.0096 21.1703 11.1405 21.6123C10.8863 21.7415 10.5816 21.8964 10.1744 22.0994L10.1508 22.1121C10.1293 22.1238 10.0808 22.1502 10.0352 22.1739C10.0119 22.186 9.97561 22.2046 9.93386 22.2243L9.93163 22.2254C9.90622 22.2375 9.80326 22.2863 9.6727 22.3288L9.66846 22.3302C9.62399 22.3449 9.39835 22.4193 9.10473 22.4279C8.97269 22.4317 8.54694 22.4362 8.0839 22.1826C7.45585 21.8387 7.07016 21.1936 7.04518 20.4992C7.02673 19.9863 7.21089 19.6163 7.27056 19.5017C7.35119 19.3468 7.435 19.2359 7.47819 19.1813C7.5669 19.0692 7.64891 18.9907 7.67967 18.9616C7.93525 18.7197 8.25164 18.4497 8.49719 18.2402C8.6062 18.1472 8.70126 18.0661 8.77083 18.0046C9.05817 17.7509 9.26589 17.5407 9.44438 17.2969C10.1115 16.386 10.6157 15.2345 10.912 14.0141C10.912 14.0141 10.9147 14.0029 10.9205 13.9752C10.9265 13.9465 10.9342 13.9084 10.9434 13.8612C10.9618 13.7667 10.9843 13.6451 11.009 13.504C11.0586 13.221 11.1144 12.8746 11.1621 12.53L11.169 12.4805C11.0367 12.5239 10.8933 12.5747 10.7384 12.6338C10.0236 12.9063 9.22302 13.2917 8.41795 13.7218C7.18663 14.3796 6.07802 15.0664 5.31375 15.5399C5.06448 15.6944 4.85185 15.8261 4.68353 15.9267C3.10133 16.8727 1.5622 17.8536 0 18.852V33.5C0 35.1569 1.34315 36.5 3 36.5H33C34.6569 36.5 36 35.1569 36 33.5V31.4666Z" fill="white"/>
<path d="M11.2696 11.4046L11.2698 11.4114C11.2668 11.3788 11.2686 11.3733 11.2696 11.4046Z" fill="white"/>
<path d="M47.56 33V10.32H46.8L47.36 5H51.12L55.08 4.96L57 20.08L58.96 5H66.48V33H61.04V16.28L58.92 29H55.12L53 16.28V33H47.56ZM68.8491 33V10.32H68.0891L68.6491 5H74.2891V33H68.8491ZM76.4616 33V10.32H75.7016L76.2616 5H83.5816C85.6349 5 87.1016 5.45333 87.9816 6.36C88.8882 7.24 89.3416 8.69333 89.3416 10.72V19.84C89.3416 21.8933 88.9016 23.36 88.0216 24.24L90.5016 33H85.0616L82.9816 25.56H81.9016V33H76.4616ZM83.7016 10.32H81.9016V20.24H83.7016C83.8349 20.24 83.9016 20.1733 83.9016 20.04V10.52C83.9016 10.3867 83.8349 10.32 83.7016 10.32ZM91.9172 33L95.2372 10.32H94.3972L94.9572 5H104.277L108.397 33H102.997L102.397 29H97.9172L97.3172 33H91.9172ZM98.6772 23.68H101.637L100.157 13.68L98.6772 23.68ZM122.893 21.4V27.6C122.893 29.6267 122.439 31.0933 121.533 32C120.653 32.88 119.186 33.32 117.133 33.32H115.373C113.319 33.32 111.839 32.88 110.933 32C110.053 31.0933 109.613 29.6267 109.613 27.6V10.4C109.613 8.34667 110.053 6.88 110.933 6C111.839 5.12 113.319 4.68 115.373 4.68H117.133C119.186 4.68 120.653 5.12 121.533 6C122.439 6.88 122.893 8.34667 122.893 10.4V17L117.453 16.4V10.2C117.453 10.0667 117.386 10 117.253 10H115.253C115.119 10 115.053 10.0667 115.053 10.2V27.8C115.053 27.9333 115.119 28 115.253 28H117.253C117.386 28 117.453 27.9333 117.453 27.8V21.4H122.893ZM125.451 33.04V10.36H124.691L125.251 5.04H130.891V27.68H138.531L138.211 33H130.891V33.04H125.451ZM140.294 33V10.32H139.534L140.094 5H151.534L151.214 10.32H145.734V16.32H150.654L150.334 21.64H145.734V27.68H151.534L151.214 33H140.294ZM158.368 24.2V27.8C158.368 27.9333 158.435 28 158.568 28H159.728C159.861 28 159.928 27.9333 159.928 27.8L159.968 22.48L155.448 20.52C154.435 20.0667 153.755 19.6 153.408 19.12C153.088 18.64 152.928 17.9067 152.928 16.92V10.4C152.928 8.34667 153.368 6.88 154.248 6C155.128 5.12 156.555 4.68 158.528 4.68H160.208C162.075 4.76 163.408 5.25333 164.208 6.16C165.008 7.04 165.408 8.45333 165.408 10.4V15.4L159.968 14.8V10.2C159.968 10.0667 159.901 10 159.768 10H158.568C158.435 10 158.368 10.0667 158.368 10.2V16.08L162.888 18.04C163.901 18.4667 164.568 18.9333 164.888 19.44C165.235 19.92 165.408 20.6533 165.408 21.64V27.6C165.408 29.5467 165.008 30.9733 164.208 31.88C163.408 32.76 162.075 33.24 160.208 33.32H158.608C156.581 33.32 155.128 32.88 154.248 32C153.368 31.0933 152.928 29.6267 152.928 27.6V24.2H158.368ZM187.072 21.4V27.6C187.072 29.6267 186.619 31.0933 185.712 32C184.832 32.88 183.366 33.32 181.312 33.32H179.552C177.499 33.32 176.019 32.88 175.112 32C174.232 31.0933 173.792 29.6267 173.792 27.6V10.4C173.792 8.34667 174.232 6.88 175.112 6C176.019 5.12 177.499 4.68 179.552 4.68H181.312C183.366 4.68 184.832 5.12 185.712 6C186.619 6.88 187.072 8.34667 187.072 10.4V17L181.632 16.4V10.2C181.632 10.0667 181.566 10 181.432 10H179.432C179.299 10 179.232 10.0667 179.232 10.2V27.8C179.232 27.9333 179.299 28 179.432 28H181.432C181.566 28 181.632 27.9333 181.632 27.8V21.4H187.072ZM189.435 33V10.32H188.675L189.235 5H194.875V17.16H197.075V5H202.515V33H197.075V22.48H194.875V33H189.435ZM204.865 33V10.32H204.105L204.665 5H210.305V33H204.865ZM225.957 27.28C225.957 29.3067 225.504 30.7733 224.597 31.68C223.717 32.56 222.251 33 220.197 33H212.677V10.32H211.917L212.477 5H220.197C222.251 5 223.717 5.44 224.597 6.32C225.504 7.2 225.957 8.66667 225.957 10.72V27.28ZM220.317 27.68C220.451 27.68 220.517 27.6133 220.517 27.48V10.52C220.517 10.3867 220.451 10.32 220.317 10.32H218.117V27.68H220.317ZM241.978 27.44C241.978 29.4667 241.524 30.9333 240.618 31.84C239.738 32.72 238.271 33.16 236.218 33.16H234.058C232.004 33.16 230.524 32.72 229.618 31.84C228.738 30.9333 228.298 29.4667 228.298 27.44V10.32H227.538L228.098 5H233.738V27.64C233.738 27.7733 233.804 27.84 233.938 27.84H236.338C236.471 27.84 236.538 27.7733 236.538 27.64V5H241.978V27.44ZM243.923 33V10.32H243.163L243.723 5H251.363C253.416 5 254.883 5.45333 255.763 6.36C256.669 7.24 257.123 8.69333 257.123 10.72V15.96C257.123 16.76 257.056 17.4667 256.923 18.08C257.589 18.96 257.923 20.2933 257.923 22.08V27.28C257.923 29.3067 257.469 30.7733 256.563 31.68C255.683 32.56 254.216 33 252.163 33H243.923ZM251.483 16.36C251.616 16.36 251.683 16.2933 251.683 16.16V10.52C251.683 10.3867 251.616 10.32 251.483 10.32H249.363V16.36H251.483ZM252.483 21.88C252.483 21.7467 252.416 21.68 252.283 21.68H249.363V27.68H252.283C252.416 27.68 252.483 27.6133 252.483 27.48V21.88ZM260.099 33V10.32H259.339L259.899 5H271.339L271.019 10.32H265.539V16.32H270.459L270.139 21.64H265.539V27.68H271.339L271.019 33H260.099ZM273.693 33V10.32H272.933L273.493 5H277.253L281.213 4.96L283.133 20.08L285.093 5H292.613V33H287.173V16.28L285.053 29H281.253L279.133 16.28V33H273.693Z" fill="white"/>
</g>
<defs>
<clipPath id="clip0_4_2">
<rect width="294" height="37" fill="white"/>
</clipPath>
</defs>
</svg>
